<mxfile host="Electron" agent="Mozilla/5.0 (Windows NT 10.0; Win64; x64) AppleWebKit/537.36 (KHTML, like Gecko) draw.io/25.0.2 Chrome/128.0.6613.186 Electron/32.2.5 Safari/537.36" version="25.0.2" pages="6">
  <diagram id="gUtDbL0Zg-xQD1Ihu6Z5" name="design">
    <mxGraphModel dx="-8" dy="1651" grid="1" gridSize="10" guides="1" tooltips="1" connect="1" arrows="1" fold="1" page="1" pageScale="1" pageWidth="827" pageHeight="1169" math="0" shadow="0">
      <root>
        <mxCell id="0" />
        <mxCell id="1" parent="0" />
        <object placeholders="1" c4Name="User" c4Type="Person" c4Description="" label="&lt;font style=&quot;font-size: 16px&quot;&gt;&lt;b&gt;%c4Name%&lt;/b&gt;&lt;/font&gt;&lt;div&gt;[%c4Type%]&lt;/div&gt;&lt;br&gt;&lt;div&gt;&lt;font style=&quot;font-size: 11px&quot;&gt;&lt;font color=&quot;#cccccc&quot;&gt;%c4Description%&lt;/font&gt;&lt;/div&gt;" id="gNo6QdDhSp4Fp31OUBrj-1">
          <mxCell style="html=1;fontSize=11;dashed=0;whiteSpace=wrap;fillColor=#083F75;strokeColor=#06315C;fontColor=#ffffff;shape=mxgraph.c4.person2;align=center;metaEdit=1;points=[[0.5,0,0],[1,0.5,0],[1,0.75,0],[0.75,1,0],[0.5,1,0],[0.25,1,0],[0,0.75,0],[0,0.5,0]];resizable=0;" parent="1" vertex="1">
            <mxGeometry x="2130" y="360" width="200" height="180" as="geometry" />
          </mxCell>
        </object>
        <object placeholders="1" c4Type="Relationship" c4Description="send heartbeat every 10s&#xa;[HTTPS]" label="&lt;div style=&quot;text-align: left&quot;&gt;&lt;div style=&quot;text-align: center&quot;&gt;&lt;b&gt;%c4Description%&lt;/b&gt;&lt;/div&gt;" id="gNo6QdDhSp4Fp31OUBrj-3">
          <mxCell style="endArrow=blockThin;html=1;fontSize=10;fontColor=#404040;strokeWidth=1;endFill=1;strokeColor=#828282;elbow=vertical;metaEdit=1;endSize=14;startSize=14;jumpStyle=arc;jumpSize=16;rounded=0;edgeStyle=orthogonalEdgeStyle;entryX=0;entryY=0.5;entryDx=0;entryDy=0;entryPerimeter=0;exitX=1.018;exitY=0.564;exitDx=0;exitDy=0;exitPerimeter=0;" parent="1" source="gNo6QdDhSp4Fp31OUBrj-1" edge="1">
            <mxGeometry width="240" relative="1" as="geometry">
              <mxPoint x="2930" y="460" as="sourcePoint" />
              <mxPoint x="3240" y="440" as="targetPoint" />
              <mxPoint as="offset" />
            </mxGeometry>
          </mxCell>
        </object>
        <object placeholders="1" c4Name="Broker" c4Type="Container" c4Technology="Apache Kafka" c4Description="" label="&lt;font style=&quot;font-size: 16px&quot;&gt;&lt;b&gt;%c4Name%&lt;/b&gt;&lt;/font&gt;&lt;div&gt;[%c4Type%:&amp;nbsp;%c4Technology%]&lt;/div&gt;&lt;br&gt;&lt;div&gt;&lt;font style=&quot;font-size: 11px&quot;&gt;&lt;font color=&quot;#E6E6E6&quot;&gt;%c4Description%&lt;/font&gt;&lt;/div&gt;" id="gNo6QdDhSp4Fp31OUBrj-9">
          <mxCell style="shape=cylinder3;size=15;direction=south;whiteSpace=wrap;html=1;boundedLbl=1;rounded=0;labelBackgroundColor=none;fillColor=#23A2D9;fontSize=12;fontColor=#ffffff;align=center;strokeColor=#0E7DAD;metaEdit=1;points=[[0.5,0,0],[1,0.25,0],[1,0.5,0],[1,0.75,0],[0.5,1,0],[0,0.75,0],[0,0.5,0],[0,0.25,0]];resizable=0;" parent="1" vertex="1">
            <mxGeometry x="3890" y="400" width="240" height="120" as="geometry" />
          </mxCell>
        </object>
        <mxCell id="gNo6QdDhSp4Fp31OUBrj-20" value="{&#xa;   &quot;user_id&quot;: &quot;string (external ID)&quot;,&#xa;   &quot;presenceStatus&quot;: &quot;string (e.g., &#39;ONLINE&#39;, &#39;IDLE&#39;, &#39;OFFLINE&#39;)&quot;,&#xa;   &quot;timestamp&quot;: &quot;timestamp (e.g., 2398020423)&quot;, ,&#xa;}" style="text;whiteSpace=wrap;" parent="1" vertex="1">
          <mxGeometry x="2535" y="550" width="360" height="100" as="geometry" />
        </mxCell>
        <mxCell id="wZhvd3c9aum_3Vgp6UAI-1" value="// USER PRESENCE &#xa;{&#xa;   &quot;user_id&quot;: &quot;string (external ID)&quot;,&#xa;   &quot;presenceStatus&quot;: &quot;string (e.g., &#39;ONLINE&#39;, &#39;IDLE&#39;, &#39;OFFLINE&#39;)&quot;,&#xa;   &quot;timestamp&quot;: &quot;timestamp (e.g., 2398020423)&quot;, ,&#xa;}" style="text;whiteSpace=wrap;" parent="1" vertex="1">
          <mxGeometry x="3450" y="570" width="370" height="100" as="geometry" />
        </mxCell>
        <mxCell id="Rgg267H61OI4wxg7GCcm-3" value="{&#xa;   &quot;user_id&quot;: &quot;string (external ID)&quot;,&#xa;   &quot;presenceStatus&quot;: &quot;string (e.g., &#39;ONLINE&#39;, &#39;IDLE&#39;, &#39;OFFLINE&#39;)&quot;,&#xa;   &quot;timestamp&quot;: &quot;timestamp (e.g., 2398020423)&quot;, ,&#xa;}" style="text;whiteSpace=wrap;" parent="1" vertex="1">
          <mxGeometry x="3540" y="450" width="370" height="100" as="geometry" />
        </mxCell>
        <mxCell id="Rgg267H61OI4wxg7GCcm-4" style="edgeStyle=orthogonalEdgeStyle;rounded=0;orthogonalLoop=1;jettySize=auto;html=1;entryX=0.5;entryY=1;entryDx=0;entryDy=0;entryPerimeter=0;exitX=1;exitY=0.5;exitDx=0;exitDy=0;exitPerimeter=0;" parent="1" target="gNo6QdDhSp4Fp31OUBrj-9" edge="1">
          <mxGeometry relative="1" as="geometry">
            <mxPoint x="3480" y="440" as="sourcePoint" />
            <mxPoint x="3370" y="690" as="targetPoint" />
          </mxGeometry>
        </mxCell>
        <mxCell id="Rgg267H61OI4wxg7GCcm-6" value="&lt;div&gt;ONLINE (active),&lt;/div&gt;&lt;div&gt;&lt;span style=&quot;background-color: initial;&quot;&gt;IDLE(e.g. minimized tab, no interaction for a certain period of time),&lt;/span&gt;&lt;br&gt;&lt;/div&gt;&lt;div&gt;OFFLINE (logged out, etc.).&lt;/div&gt;" style="rounded=1;whiteSpace=wrap;html=1;fillColor=#ffe6cc;strokeColor=#d79b00;fontSize=14;fontStyle=1" parent="1" vertex="1">
          <mxGeometry x="2090" y="220" width="330" height="110" as="geometry" />
        </mxCell>
        <mxCell id="Rgg267H61OI4wxg7GCcm-7" value="User Presence Status Changed" style="rounded=1;whiteSpace=wrap;html=1;fillColor=#CC6600;strokeColor=#FFFFFF;fontColor=#FFFFFF;fontSize=14;fontStyle=1" parent="1" vertex="1">
          <mxGeometry x="3616" y="354.95" width="200" height="80" as="geometry" />
        </mxCell>
        <mxCell id="1aHIVDsz0oUcndWCjiS_-1" value="Policy.&lt;div&gt;whenever user presence or status changed, an event is sent to each group to which the user belongs&lt;/div&gt;" style="rounded=1;whiteSpace=wrap;html=1;fillColor=#7F00FF;strokeColor=#FFFFFF;fontColor=#FFFFFF;fontSize=14;fontStyle=1" parent="1" vertex="1">
          <mxGeometry x="2905" y="1120" width="320" height="120" as="geometry" />
        </mxCell>
        <mxCell id="1aHIVDsz0oUcndWCjiS_-2" value="User Presence Changed" style="rounded=1;whiteSpace=wrap;html=1;fillColor=#CC6600;strokeColor=#FFFFFF;fontColor=#FFFFFF;fontSize=14;fontStyle=1" parent="1" vertex="1">
          <mxGeometry x="2595" y="1090" width="200" height="80" as="geometry" />
        </mxCell>
        <mxCell id="1aHIVDsz0oUcndWCjiS_-7" value="{&#xa;    &quot;domainObjectTye&quot;: &quot;string (e.g. &#39;FRIEND_LIST&#39;)&quot;, &#xa;    &quot;domainObjectId&quot;: &quot;string (external ID )&quot;,&#xa;    &quot;status&quot;:&quot;string (e.g., &#39;ONLINE&#39;, &#39;IDLE&#39;)&quot;,&#xa;    &quot;userId&quot;:&quot;string (external ID)&quot;,&#xa;    &quot;timestamp&quot;: &quot;timestamp (e.g., 2398020423)&quot;&#xa;}" style="text;whiteSpace=wrap;" parent="1" vertex="1">
          <mxGeometry x="3402" y="1230" width="320" height="120" as="geometry" />
        </mxCell>
        <object placeholders="1" c4Name="Broker" c4Type="Container" c4Technology="Apache Kafka" c4Description="" label="&lt;font style=&quot;font-size: 16px&quot;&gt;&lt;b&gt;%c4Name%&lt;/b&gt;&lt;/font&gt;&lt;div&gt;[%c4Type%:&amp;nbsp;%c4Technology%]&lt;/div&gt;&lt;br&gt;&lt;div&gt;&lt;font style=&quot;font-size: 11px&quot;&gt;&lt;font color=&quot;#E6E6E6&quot;&gt;%c4Description%&lt;/font&gt;&lt;/div&gt;" id="1aHIVDsz0oUcndWCjiS_-9">
          <mxCell style="shape=cylinder3;size=15;direction=south;whiteSpace=wrap;html=1;boundedLbl=1;rounded=0;labelBackgroundColor=none;fillColor=#23A2D9;fontSize=12;fontColor=#ffffff;align=center;strokeColor=#0E7DAD;metaEdit=1;points=[[0.5,0,0],[1,0.25,0],[1,0.5,0],[1,0.75,0],[0.5,1,0],[0,0.75,0],[0,0.5,0],[0,0.25,0]];resizable=0;" parent="1" vertex="1">
            <mxGeometry x="3667" y="1120" width="240" height="120" as="geometry" />
          </mxCell>
        </object>
        <mxCell id="1aHIVDsz0oUcndWCjiS_-11" style="edgeStyle=orthogonalEdgeStyle;rounded=0;orthogonalLoop=1;jettySize=auto;html=1;entryX=0.5;entryY=1;entryDx=0;entryDy=0;entryPerimeter=0;exitX=1.003;exitY=0.461;exitDx=0;exitDy=0;exitPerimeter=0;" parent="1" source="1aHIVDsz0oUcndWCjiS_-1" target="1aHIVDsz0oUcndWCjiS_-9" edge="1">
          <mxGeometry relative="1" as="geometry">
            <mxPoint x="3475" y="790" as="sourcePoint" />
            <mxPoint x="3885" y="790" as="targetPoint" />
          </mxGeometry>
        </mxCell>
        <mxCell id="1aHIVDsz0oUcndWCjiS_-12" value="Policy.&lt;br&gt;&lt;div&gt;&lt;span style=&quot;background-color: initial;&quot;&gt;whenever group member status changed,&lt;/span&gt;, group model is updated&lt;/div&gt;" style="rounded=1;whiteSpace=wrap;html=1;fillColor=#7F00FF;strokeColor=#FFFFFF;fontColor=#FFFFFF;fontSize=14;fontStyle=1" parent="1" vertex="1">
          <mxGeometry x="2410" y="1700" width="320" height="120" as="geometry" />
        </mxCell>
        <mxCell id="1aHIVDsz0oUcndWCjiS_-40" style="edgeStyle=orthogonalEdgeStyle;rounded=0;orthogonalLoop=1;jettySize=auto;html=1;" parent="1" source="1aHIVDsz0oUcndWCjiS_-22" target="1aHIVDsz0oUcndWCjiS_-38" edge="1">
          <mxGeometry relative="1" as="geometry" />
        </mxCell>
        <mxCell id="1aHIVDsz0oUcndWCjiS_-41" style="edgeStyle=orthogonalEdgeStyle;rounded=0;orthogonalLoop=1;jettySize=auto;html=1;exitX=1;exitY=0.5;exitDx=0;exitDy=0;" parent="1" source="1aHIVDsz0oUcndWCjiS_-22" target="1aHIVDsz0oUcndWCjiS_-39" edge="1">
          <mxGeometry relative="1" as="geometry" />
        </mxCell>
        <mxCell id="1aHIVDsz0oUcndWCjiS_-22" value="Policy.&lt;br&gt;&lt;div&gt;&lt;span style=&quot;background-color: initial;&quot;&gt;whenever group member status changed,&lt;br&gt;&lt;/span&gt;if group size is smaler than X,&lt;br&gt;&lt;/div&gt;" style="rounded=1;whiteSpace=wrap;html=1;fillColor=#7F00FF;strokeColor=#FFFFFF;fontColor=#FFFFFF;fontSize=14;fontStyle=1" parent="1" vertex="1">
          <mxGeometry x="3465" y="1620" width="351" height="200" as="geometry" />
        </mxCell>
        <object placeholders="1" c4Name="Real-time Publisher" c4Type="Component" c4Technology="" c4Description="send Events to Users" label="&lt;font style=&quot;font-size: 16px&quot;&gt;&lt;b&gt;%c4Name%&lt;/b&gt;&lt;/font&gt;&lt;div&gt;[%c4Type%: %c4Technology%]&lt;/div&gt;&lt;br&gt;&lt;div&gt;&lt;font style=&quot;font-size: 11px&quot;&gt;%c4Description%&lt;/font&gt;&lt;/div&gt;" id="1aHIVDsz0oUcndWCjiS_-24">
          <mxCell style="rounded=1;whiteSpace=wrap;html=1;labelBackgroundColor=none;fillColor=#63BEF2;fontColor=#ffffff;align=center;arcSize=6;strokeColor=#2086C9;metaEdit=1;resizable=0;points=[[0.25,0,0],[0.5,0,0],[0.75,0,0],[1,0.25,0],[1,0.5,0],[1,0.75,0],[0.75,1,0],[0.5,1,0],[0.25,1,0],[0,0.75,0],[0,0.5,0],[0,0.25,0]];" parent="1" vertex="1">
            <mxGeometry x="4920" y="1335" width="240" height="120" as="geometry" />
          </mxCell>
        </object>
        <object placeholders="1" c4Name="User" c4Type="Person" c4Description="" label="&lt;font style=&quot;font-size: 16px&quot;&gt;&lt;b&gt;%c4Name%&lt;/b&gt;&lt;/font&gt;&lt;div&gt;[%c4Type%]&lt;/div&gt;&lt;br&gt;&lt;div&gt;&lt;font style=&quot;font-size: 11px&quot;&gt;&lt;font color=&quot;#cccccc&quot;&gt;%c4Description%&lt;/font&gt;&lt;/div&gt;" id="1aHIVDsz0oUcndWCjiS_-25">
          <mxCell style="html=1;fontSize=11;dashed=0;whiteSpace=wrap;fillColor=#083F75;strokeColor=#06315C;fontColor=#ffffff;shape=mxgraph.c4.person2;align=center;metaEdit=1;points=[[0.5,0,0],[1,0.5,0],[1,0.75,0],[0.75,1,0],[0.5,1,0],[0.25,1,0],[0,0.75,0],[0,0.5,0]];resizable=0;" parent="1" vertex="1">
            <mxGeometry x="5430" y="1275" width="200" height="180" as="geometry" />
          </mxCell>
        </object>
        <mxCell id="1aHIVDsz0oUcndWCjiS_-26" style="edgeStyle=orthogonalEdgeStyle;rounded=0;orthogonalLoop=1;jettySize=auto;html=1;entryX=1;entryY=0.25;entryDx=0;entryDy=0;entryPerimeter=0;" parent="1" source="1aHIVDsz0oUcndWCjiS_-25" target="1aHIVDsz0oUcndWCjiS_-24" edge="1">
          <mxGeometry relative="1" as="geometry" />
        </mxCell>
        <mxCell id="1aHIVDsz0oUcndWCjiS_-27" value="Open SSE Channel&lt;div&gt;[HTTP]&lt;/div&gt;" style="edgeLabel;html=1;align=center;verticalAlign=middle;resizable=0;points=[];" parent="1aHIVDsz0oUcndWCjiS_-26" vertex="1" connectable="0">
          <mxGeometry x="0.1358" y="1" relative="1" as="geometry">
            <mxPoint as="offset" />
          </mxGeometry>
        </mxCell>
        <mxCell id="1aHIVDsz0oUcndWCjiS_-28" value="/api/presence/stream" style="text;whiteSpace=wrap;" parent="1" vertex="1">
          <mxGeometry x="5230" y="1315" width="150" height="40" as="geometry" />
        </mxCell>
        <mxCell id="1aHIVDsz0oUcndWCjiS_-29" style="edgeStyle=orthogonalEdgeStyle;rounded=0;orthogonalLoop=1;jettySize=auto;html=1;exitX=0;exitY=0.75;exitDx=0;exitDy=0;exitPerimeter=0;entryX=1.005;entryY=0.631;entryDx=0;entryDy=0;entryPerimeter=0;" parent="1" source="1aHIVDsz0oUcndWCjiS_-25" target="1aHIVDsz0oUcndWCjiS_-24" edge="1">
          <mxGeometry relative="1" as="geometry" />
        </mxCell>
        <mxCell id="1aHIVDsz0oUcndWCjiS_-30" value="Subscribe to group&lt;div&gt;[HTTP]&lt;/div&gt;" style="edgeLabel;html=1;align=center;verticalAlign=middle;resizable=0;points=[];" parent="1aHIVDsz0oUcndWCjiS_-29" vertex="1" connectable="0">
          <mxGeometry x="-0.1024" y="2" relative="1" as="geometry">
            <mxPoint as="offset" />
          </mxGeometry>
        </mxCell>
        <mxCell id="1aHIVDsz0oUcndWCjiS_-31" value="PATCH /api/presence/subscriptions&#xa;{&#xa;    &quot;userId&quot;:&quot;string (external ID)&quot;,&#xa;&#x9;    &quot;domainObjectTye&quot;: &quot;string (e.g. &#39;FRIEND_LIST&#39;)&quot;, &#xa;&#x9;    &quot;domainObjectId&quot;: &quot;string (external ID )&quot;,&#xa;}" style="text;whiteSpace=wrap;" parent="1" vertex="1">
          <mxGeometry x="5180" y="1415" width="420" height="100" as="geometry" />
        </mxCell>
        <mxCell id="1aHIVDsz0oUcndWCjiS_-33" style="edgeStyle=orthogonalEdgeStyle;rounded=0;orthogonalLoop=1;jettySize=auto;html=1;entryX=0;entryY=0.5;entryDx=0;entryDy=0;entryPerimeter=0;" parent="1" target="4UBBkmqZQU5W0IxFpf4w-8" edge="1">
          <mxGeometry relative="1" as="geometry">
            <mxPoint x="4185" y="1620" as="sourcePoint" />
            <mxPoint x="4571.8" y="1611.1399999999999" as="targetPoint" />
          </mxGeometry>
        </mxCell>
        <mxCell id="1aHIVDsz0oUcndWCjiS_-34" value="{&#xa;    &quot;event&quot;: &quot;GroupMemberStatusChanged&quot;,&#xa;    &quot;data&quot;:{&#xa;        &quot;domainObjectTye&quot;: &quot;string (e.g. &#39;FRIEND_LIST&#39;)&quot;, &#xa;        &quot;domainObjectId&quot;: &quot;string (external ID )&quot;,&#xa;        &quot;status&quot;:&quot;string (e.g., &#39;ONLINE&#39;, &#39;IDLE&#39;)&quot;,&#xa;        &quot;userId&quot;:&quot;string (external ID)&quot;,&#xa;        &quot;timestamp&quot;: &quot;timestamp (e.g., 2398020423)&quot;&#xa;    }&#xa;}" style="text;whiteSpace=wrap;" parent="1" vertex="1">
          <mxGeometry x="4265" y="1615" width="320" height="120" as="geometry" />
        </mxCell>
        <mxCell id="1aHIVDsz0oUcndWCjiS_-37" style="edgeStyle=orthogonalEdgeStyle;rounded=0;orthogonalLoop=1;jettySize=auto;html=1;entryX=0;entryY=0.5;entryDx=0;entryDy=0;" parent="1" source="1aHIVDsz0oUcndWCjiS_-35" target="1aHIVDsz0oUcndWCjiS_-1" edge="1">
          <mxGeometry relative="1" as="geometry" />
        </mxCell>
        <object placeholders="1" c4Name="Broker" c4Type="Container" c4Technology="Apache Kafka" c4Description="" label="&lt;font style=&quot;font-size: 16px&quot;&gt;&lt;b&gt;%c4Name%&lt;/b&gt;&lt;/font&gt;&lt;div&gt;[%c4Type%:&amp;nbsp;%c4Technology%]&lt;/div&gt;&lt;br&gt;&lt;div&gt;&lt;font style=&quot;font-size: 11px&quot;&gt;&lt;font color=&quot;#E6E6E6&quot;&gt;%c4Description%&lt;/font&gt;&lt;/div&gt;" id="1aHIVDsz0oUcndWCjiS_-35">
          <mxCell style="shape=cylinder3;size=15;direction=south;whiteSpace=wrap;html=1;boundedLbl=1;rounded=0;labelBackgroundColor=none;fillColor=#23A2D9;fontSize=12;fontColor=#ffffff;align=center;strokeColor=#0E7DAD;metaEdit=1;points=[[0.5,0,0],[1,0.25,0],[1,0.5,0],[1,0.75,0],[0.5,1,0],[0,0.75,0],[0,0.5,0],[0,0.25,0]];resizable=0;" parent="1" vertex="1">
            <mxGeometry x="2315" y="1120" width="240" height="120" as="geometry" />
          </mxCell>
        </object>
        <mxCell id="1aHIVDsz0oUcndWCjiS_-38" value="Directl Event Send Policy.&lt;br&gt;&lt;div&gt;&amp;nbsp;event is send&amp;nbsp;&lt;span style=&quot;background-color: initial;&quot;&gt;directly&lt;/span&gt;&lt;span style=&quot;background-color: initial;&quot;&gt;&amp;nbsp;&lt;/span&gt;&lt;span style=&quot;background-color: initial;&quot;&gt;to subscribers over opened SEE Changel&lt;/span&gt;&lt;/div&gt;" style="rounded=1;whiteSpace=wrap;html=1;fillColor=#7F00FF;strokeColor=#FFFFFF;fontColor=#FFFFFF;fontSize=14;fontStyle=1" parent="1" vertex="1">
          <mxGeometry x="3845" y="1554" width="360" height="106" as="geometry" />
        </mxCell>
        <mxCell id="1aHIVDsz0oUcndWCjiS_-39" value="Grup Status Event Send Policy.&lt;br&gt;&lt;div&gt;&lt;span style=&quot;background-color: initial;&quot;&gt;every 30s&amp;nbsp;&lt;/span&gt;&lt;span style=&quot;background-color: initial;&quot;&gt;GroupStatusChanged is send to every subscriber&lt;/span&gt;&lt;br&gt;&lt;/div&gt;" style="rounded=1;whiteSpace=wrap;html=1;fillColor=#7F00FF;strokeColor=#FFFFFF;fontColor=#FFFFFF;fontSize=14;fontStyle=1" parent="1" vertex="1">
          <mxGeometry x="3854" y="1790" width="351" height="100" as="geometry" />
        </mxCell>
        <mxCell id="1aHIVDsz0oUcndWCjiS_-43" style="edgeStyle=orthogonalEdgeStyle;rounded=0;orthogonalLoop=1;jettySize=auto;html=1;entryX=0;entryY=0.5;entryDx=0;entryDy=0;entryPerimeter=0;" parent="1" source="1aHIVDsz0oUcndWCjiS_-39" target="4UBBkmqZQU5W0IxFpf4w-10" edge="1">
          <mxGeometry relative="1" as="geometry">
            <mxPoint x="4585" y="1859" as="targetPoint" />
          </mxGeometry>
        </mxCell>
        <mxCell id="1aHIVDsz0oUcndWCjiS_-45" value="{&#xa;    &quot;event&quot;:&quot;AggregatedGroupMemberStatutesChanged&quot;,&#xa;    &quot;data&quot;:&#xa;        {           &#xa;             &quot;domainObjectTye&quot;: &quot;string (e.g. &#39;FRIEND_LIST&#39;)&quot;, &#xa;            &quot;domainObjectId&quot;: &quot;string (external ID )&quot;,&#xa;            &quot;members&quot;:[&#xa;                {&#xa;                    &quot;userId&quot;:&quot;string (external ID)&quot;,&#xa;                    &quot;status&quot;:&quot;string (e.g., &#39;ONLINE&#39;, &#39;IDLE&#39;)&quot;,&#xa;                    &quot;timestamp&quot;: &quot;timestamp (e.g., 2398020423)&quot;&#xa;                }&#xa;            ]&#xa;        },&#xa;}" style="text;whiteSpace=wrap;" parent="1" vertex="1">
          <mxGeometry x="4240" y="1850" width="415" height="270" as="geometry" />
        </mxCell>
        <mxCell id="UAVn7-agEcql3Kc7Cxlo-8" style="edgeStyle=orthogonalEdgeStyle;rounded=0;orthogonalLoop=1;jettySize=auto;html=1;entryX=0.5;entryY=0;entryDx=0;entryDy=0;" edge="1" parent="1" source="1aHIVDsz0oUcndWCjiS_-53" target="UAVn7-agEcql3Kc7Cxlo-7">
          <mxGeometry relative="1" as="geometry" />
        </mxCell>
        <mxCell id="1aHIVDsz0oUcndWCjiS_-53" value="&lt;div&gt;PresenceChangedPolicy&amp;nbsp;&lt;/div&gt;&lt;div&gt;&amp;nbsp;whenever status changed: send Event and save model(dual-write).&lt;/div&gt;" style="rounded=1;whiteSpace=wrap;html=1;fillColor=#7F00FF;strokeColor=#FFFFFF;fontColor=#FFFFFF;fontSize=14;fontStyle=1" parent="1" vertex="1">
          <mxGeometry x="3200" y="380" width="320" height="120" as="geometry" />
        </mxCell>
        <mxCell id="1aHIVDsz0oUcndWCjiS_-54" value="&lt;div&gt;UserDisconnectionPolicy&lt;/div&gt;&lt;div&gt;if presence servers didnot receive a heartbeat within a certain time from the client, a user is considered as OFFLINE&lt;/div&gt;" style="rounded=1;whiteSpace=wrap;html=1;fillColor=#7F00FF;strokeColor=#FFFFFF;fontColor=#FFFFFF;fontSize=14;fontStyle=1" parent="1" vertex="1">
          <mxGeometry x="3200" y="180" width="320" height="120" as="geometry" />
        </mxCell>
        <object placeholders="1" c4Name="User Status" c4Type="Component" c4Technology="" c4Description="manage user status&#xa;&#xa;" label="&lt;font style=&quot;font-size: 16px&quot;&gt;&lt;b&gt;%c4Name%&lt;/b&gt;&lt;/font&gt;&lt;div&gt;[%c4Type%: %c4Technology%]&lt;/div&gt;&lt;br&gt;&lt;div&gt;&lt;font style=&quot;font-size: 11px&quot;&gt;%c4Description%&lt;/font&gt;&lt;/div&gt;" id="1aHIVDsz0oUcndWCjiS_-55">
          <mxCell style="rounded=1;whiteSpace=wrap;html=1;labelBackgroundColor=none;fillColor=#63BEF2;fontColor=#ffffff;align=center;arcSize=6;strokeColor=#2086C9;metaEdit=1;resizable=0;points=[[0.25,0,0],[0.5,0,0],[0.75,0,0],[1,0.25,0],[1,0.5,0],[1,0.75,0],[0.75,1,0],[0.5,1,0],[0.25,1,0],[0,0.75,0],[0,0.5,0],[0,0.25,0]];" parent="1" vertex="1">
            <mxGeometry x="4900" y="380" width="240" height="120" as="geometry" />
          </mxCell>
        </object>
        <object placeholders="1" c4Name="User" c4Type="Person" c4Description="" label="&lt;font style=&quot;font-size: 16px&quot;&gt;&lt;b&gt;%c4Name%&lt;/b&gt;&lt;/font&gt;&lt;div&gt;[%c4Type%]&lt;/div&gt;&lt;br&gt;&lt;div&gt;&lt;font style=&quot;font-size: 11px&quot;&gt;&lt;font color=&quot;#cccccc&quot;&gt;%c4Description%&lt;/font&gt;&lt;/div&gt;" id="1aHIVDsz0oUcndWCjiS_-56">
          <mxCell style="html=1;fontSize=11;dashed=0;whiteSpace=wrap;fillColor=#083F75;strokeColor=#06315C;fontColor=#ffffff;shape=mxgraph.c4.person2;align=center;metaEdit=1;points=[[0.5,0,0],[1,0.5,0],[1,0.75,0],[0.75,1,0],[0.5,1,0],[0.25,1,0],[0,0.75,0],[0,0.5,0]];resizable=0;" parent="1" vertex="1">
            <mxGeometry x="4360" y="340" width="200" height="180" as="geometry" />
          </mxCell>
        </object>
        <object placeholders="1" c4Type="Relationship" c4Description="change status&#xa;[HTTPS]" label="&lt;div style=&quot;text-align: left&quot;&gt;&lt;div style=&quot;text-align: center&quot;&gt;&lt;b&gt;%c4Description%&lt;/b&gt;&lt;/div&gt;" id="1aHIVDsz0oUcndWCjiS_-57">
          <mxCell style="endArrow=blockThin;html=1;fontSize=10;fontColor=#404040;strokeWidth=1;endFill=1;strokeColor=#828282;elbow=vertical;metaEdit=1;endSize=14;startSize=14;jumpStyle=arc;jumpSize=16;rounded=0;edgeStyle=orthogonalEdgeStyle;entryX=0;entryY=0.5;entryDx=0;entryDy=0;entryPerimeter=0;exitX=1.018;exitY=0.564;exitDx=0;exitDy=0;exitPerimeter=0;" parent="1" source="1aHIVDsz0oUcndWCjiS_-56" target="1aHIVDsz0oUcndWCjiS_-55" edge="1">
            <mxGeometry width="240" relative="1" as="geometry">
              <mxPoint x="4360" y="480" as="sourcePoint" />
              <mxPoint x="4670" y="480" as="targetPoint" />
              <mxPoint as="offset" />
            </mxGeometry>
          </mxCell>
        </object>
        <mxCell id="1aHIVDsz0oUcndWCjiS_-58" value="&lt;div&gt;ONLINE,&lt;/div&gt;&lt;div&gt;&lt;span style=&quot;background-color: initial;&quot;&gt;IDLE&lt;/span&gt;&lt;/div&gt;&lt;div&gt;DO_NOT_DISTRUB&lt;/div&gt;&lt;div&gt;INVISIBLE.&lt;/div&gt;" style="rounded=1;whiteSpace=wrap;html=1;fillColor=#ffe6cc;strokeColor=#d79b00;fontSize=14;fontStyle=1" parent="1" vertex="1">
          <mxGeometry x="4340" y="210" width="330" height="110" as="geometry" />
        </mxCell>
        <mxCell id="1aHIVDsz0oUcndWCjiS_-60" value="&lt;span style=&quot;color: rgb(0, 0, 0); font-family: Helvetica; font-size: 12px; font-style: normal; font-variant-ligatures: normal; font-variant-caps: normal; font-weight: 400; letter-spacing: normal; orphans: 2; text-align: left; text-indent: 0px; text-transform: none; widows: 2; word-spacing: 0px; -webkit-text-stroke-width: 0px; white-space: normal; background-color: rgb(251, 251, 251); text-decoration-thickness: initial; text-decoration-style: initial; text-decoration-color: initial; display: inline !important; float: none;&quot;&gt;``` json&lt;/span&gt;&lt;br style=&quot;forced-color-adjust: none; padding: 0px; margin: 0px; color: rgb(0, 0, 0); font-family: Helvetica; font-size: 12px; font-style: normal; font-variant-ligatures: normal; font-variant-caps: normal; font-weight: 400; letter-spacing: normal; orphans: 2; text-align: left; text-indent: 0px; text-transform: none; widows: 2; word-spacing: 0px; -webkit-text-stroke-width: 0px; white-space: normal; background-color: rgb(251, 251, 251); text-decoration-thickness: initial; text-decoration-style: initial; text-decoration-color: initial;&quot;&gt;&lt;span style=&quot;color: rgb(0, 0, 0); font-family: Helvetica; font-size: 12px; font-style: normal; font-variant-ligatures: normal; font-variant-caps: normal; font-weight: 400; letter-spacing: normal; orphans: 2; text-align: left; text-indent: 0px; text-transform: none; widows: 2; word-spacing: 0px; -webkit-text-stroke-width: 0px; white-space: normal; background-color: rgb(251, 251, 251); text-decoration-thickness: initial; text-decoration-style: initial; text-decoration-color: initial; display: inline !important; float: none;&quot;&gt;// STATUS&lt;br&gt;&lt;/span&gt;&lt;div&gt;&lt;span style=&quot;color: rgb(0, 0, 0); font-family: Helvetica; font-size: 12px; font-style: normal; font-variant-ligatures: normal; font-variant-caps: normal; font-weight: 400; letter-spacing: normal; orphans: 2; text-align: left; text-indent: 0px; text-transform: none; widows: 2; word-spacing: 0px; -webkit-text-stroke-width: 0px; white-space: normal; background-color: rgb(251, 251, 251); text-decoration-thickness: initial; text-decoration-style: initial; text-decoration-color: initial; display: inline !important; float: none;&quot;&gt;{&lt;/span&gt;&lt;br style=&quot;forced-color-adjust: none; padding: 0px; margin: 0px; color: rgb(0, 0, 0); font-family: Helvetica; font-size: 12px; font-style: normal; font-variant-ligatures: normal; font-variant-caps: normal; font-weight: 400; letter-spacing: normal; orphans: 2; text-align: left; text-indent: 0px; text-transform: none; widows: 2; word-spacing: 0px; -webkit-text-stroke-width: 0px; white-space: normal; background-color: rgb(251, 251, 251); text-decoration-thickness: initial; text-decoration-style: initial; text-decoration-color: initial;&quot;&gt;&lt;span style=&quot;color: rgb(0, 0, 0); font-family: Helvetica; font-size: 12px; font-style: normal; font-variant-ligatures: normal; font-variant-caps: normal; font-weight: 400; letter-spacing: normal; orphans: 2; text-align: left; text-indent: 0px; text-transform: none; widows: 2; word-spacing: 0px; -webkit-text-stroke-width: 0px; white-space: normal; background-color: rgb(251, 251, 251); text-decoration-thickness: initial; text-decoration-style: initial; text-decoration-color: initial; display: inline !important; float: none;&quot;&gt;&amp;nbsp;&amp;nbsp;&amp;nbsp;&amp;nbsp;&quot;status&quot;:&quot;DO_NOT_DISTURB&quot;,&lt;/span&gt;&lt;br style=&quot;forced-color-adjust: none; padding: 0px; margin: 0px; color: rgb(0, 0, 0); font-family: Helvetica; font-size: 12px; font-style: normal; font-variant-ligatures: normal; font-variant-caps: normal; font-weight: 400; letter-spacing: normal; orphans: 2; text-align: left; text-indent: 0px; text-transform: none; widows: 2; word-spacing: 0px; -webkit-text-stroke-width: 0px; white-space: normal; background-color: rgb(251, 251, 251); text-decoration-thickness: initial; text-decoration-style: initial; text-decoration-color: initial;&quot;&gt;&lt;span style=&quot;color: rgb(0, 0, 0); font-family: Helvetica; font-size: 12px; font-style: normal; font-variant-ligatures: normal; font-variant-caps: normal; font-weight: 400; letter-spacing: normal; orphans: 2; text-align: left; text-indent: 0px; text-transform: none; widows: 2; word-spacing: 0px; -webkit-text-stroke-width: 0px; white-space: normal; background-color: rgb(251, 251, 251); text-decoration-thickness: initial; text-decoration-style: initial; text-decoration-color: initial; display: inline !important; float: none;&quot;&gt;&amp;nbsp;&amp;nbsp;&amp;nbsp;&amp;nbsp;&quot;mesage&quot;:&quot;Do Not Disturb&quot;,&lt;/span&gt;&lt;br style=&quot;forced-color-adjust: none; padding: 0px; margin: 0px; color: rgb(0, 0, 0); font-family: Helvetica; font-size: 12px; font-style: normal; font-variant-ligatures: normal; font-variant-caps: normal; font-weight: 400; letter-spacing: normal; orphans: 2; text-align: left; text-indent: 0px; text-transform: none; widows: 2; word-spacing: 0px; -webkit-text-stroke-width: 0px; white-space: normal; background-color: rgb(251, 251, 251); text-decoration-thickness: initial; text-decoration-style: initial; text-decoration-color: initial;&quot;&gt;&lt;span style=&quot;color: rgb(0, 0, 0); font-family: Helvetica; font-size: 12px; font-style: normal; font-variant-ligatures: normal; font-variant-caps: normal; font-weight: 400; letter-spacing: normal; orphans: 2; text-align: left; text-indent: 0px; text-transform: none; widows: 2; word-spacing: 0px; -webkit-text-stroke-width: 0px; white-space: normal; background-color: rgb(251, 251, 251); text-decoration-thickness: initial; text-decoration-style: initial; text-decoration-color: initial; display: inline !important; float: none;&quot;&gt;&amp;nbsp;&amp;nbsp;&amp;nbsp;&amp;nbsp;&quot;metadata&quot;:{&lt;/span&gt;&lt;br style=&quot;forced-color-adjust: none; padding: 0px; margin: 0px; color: rgb(0, 0, 0); font-family: Helvetica; font-size: 12px; font-style: normal; font-variant-ligatures: normal; font-variant-caps: normal; font-weight: 400; letter-spacing: normal; orphans: 2; text-align: left; text-indent: 0px; text-transform: none; widows: 2; word-spacing: 0px; -webkit-text-stroke-width: 0px; white-space: normal; background-color: rgb(251, 251, 251); text-decoration-thickness: initial; text-decoration-style: initial; text-decoration-color: initial;&quot;&gt;&lt;span style=&quot;color: rgb(0, 0, 0); font-family: Helvetica; font-size: 12px; font-style: normal; font-variant-ligatures: normal; font-variant-caps: normal; font-weight: 400; letter-spacing: normal; orphans: 2; text-align: left; text-indent: 0px; text-transform: none; widows: 2; word-spacing: 0px; -webkit-text-stroke-width: 0px; white-space: normal; background-color: rgb(251, 251, 251); text-decoration-thickness: initial; text-decoration-style: initial; text-decoration-color: initial; display: inline !important; float: none;&quot;&gt;&amp;nbsp;&amp;nbsp;&amp;nbsp;&amp;nbsp;&amp;nbsp;&amp;nbsp;&amp;nbsp;&amp;nbsp;&quot;notification&quot;:false&lt;/span&gt;&lt;br style=&quot;forced-color-adjust: none; padding: 0px; margin: 0px; color: rgb(0, 0, 0); font-family: Helvetica; font-size: 12px; font-style: normal; font-variant-ligatures: normal; font-variant-caps: normal; font-weight: 400; letter-spacing: normal; orphans: 2; text-align: left; text-indent: 0px; text-transform: none; widows: 2; word-spacing: 0px; -webkit-text-stroke-width: 0px; white-space: normal; background-color: rgb(251, 251, 251); text-decoration-thickness: initial; text-decoration-style: initial; text-decoration-color: initial;&quot;&gt;&lt;span style=&quot;color: rgb(0, 0, 0); font-family: Helvetica; font-size: 12px; font-style: normal; font-variant-ligatures: normal; font-variant-caps: normal; font-weight: 400; letter-spacing: normal; orphans: 2; text-align: left; text-indent: 0px; text-transform: none; widows: 2; word-spacing: 0px; -webkit-text-stroke-width: 0px; white-space: normal; background-color: rgb(251, 251, 251); text-decoration-thickness: initial; text-decoration-style: initial; text-decoration-color: initial; display: inline !important; float: none;&quot;&gt;&amp;nbsp;&amp;nbsp;&amp;nbsp;&amp;nbsp;}&lt;/span&gt;&lt;br style=&quot;forced-color-adjust: none; padding: 0px; margin: 0px; color: rgb(0, 0, 0); font-family: Helvetica; font-size: 12px; font-style: normal; font-variant-ligatures: normal; font-variant-caps: normal; font-weight: 400; letter-spacing: normal; orphans: 2; text-align: left; text-indent: 0px; text-transform: none; widows: 2; word-spacing: 0px; -webkit-text-stroke-width: 0px; white-space: normal; background-color: rgb(251, 251, 251); text-decoration-thickness: initial; text-decoration-style: initial; text-decoration-color: initial;&quot;&gt;&lt;span style=&quot;color: rgb(0, 0, 0); font-family: Helvetica; font-size: 12px; font-style: normal; font-variant-ligatures: normal; font-variant-caps: normal; font-weight: 400; letter-spacing: normal; orphans: 2; text-align: left; text-indent: 0px; text-transform: none; widows: 2; word-spacing: 0px; -webkit-text-stroke-width: 0px; white-space: normal; background-color: rgb(251, 251, 251); text-decoration-thickness: initial; text-decoration-style: initial; text-decoration-color: initial; display: inline !important; float: none;&quot;&gt;},&lt;/span&gt;&lt;br style=&quot;forced-color-adjust: none; padding: 0px; margin: 0px; color: rgb(0, 0, 0); font-family: Helvetica; font-size: 12px; font-style: normal; font-variant-ligatures: normal; font-variant-caps: normal; font-weight: 400; letter-spacing: normal; orphans: 2; text-align: left; text-indent: 0px; text-transform: none; widows: 2; word-spacing: 0px; -webkit-text-stroke-width: 0px; white-space: normal; background-color: rgb(251, 251, 251); text-decoration-thickness: initial; text-decoration-style: initial; text-decoration-color: initial;&quot;&gt;&lt;span style=&quot;color: rgb(0, 0, 0); font-family: Helvetica; font-size: 12px; font-style: normal; font-variant-ligatures: normal; font-variant-caps: normal; font-weight: 400; letter-spacing: normal; orphans: 2; text-align: left; text-indent: 0px; text-transform: none; widows: 2; word-spacing: 0px; -webkit-text-stroke-width: 0px; white-space: normal; background-color: rgb(251, 251, 251); text-decoration-thickness: initial; text-decoration-style: initial; text-decoration-color: initial; display: inline !important; float: none;&quot;&gt;{&lt;/span&gt;&lt;br style=&quot;forced-color-adjust: none; padding: 0px; margin: 0px; color: rgb(0, 0, 0); font-family: Helvetica; font-size: 12px; font-style: normal; font-variant-ligatures: normal; font-variant-caps: normal; font-weight: 400; letter-spacing: normal; orphans: 2; text-align: left; text-indent: 0px; text-transform: none; widows: 2; word-spacing: 0px; -webkit-text-stroke-width: 0px; white-space: normal; background-color: rgb(251, 251, 251); text-decoration-thickness: initial; text-decoration-style: initial; text-decoration-color: initial;&quot;&gt;&lt;span style=&quot;color: rgb(0, 0, 0); font-family: Helvetica; font-size: 12px; font-style: normal; font-variant-ligatures: normal; font-variant-caps: normal; font-weight: 400; letter-spacing: normal; orphans: 2; text-align: left; text-indent: 0px; text-transform: none; widows: 2; word-spacing: 0px; -webkit-text-stroke-width: 0px; white-space: normal; background-color: rgb(251, 251, 251); text-decoration-thickness: initial; text-decoration-style: initial; text-decoration-color: initial; display: inline !important; float: none;&quot;&gt;&amp;nbsp;&amp;nbsp;&amp;nbsp;&amp;nbsp;&quot;status&quot;:&quot;ONLINE&quot;,&lt;/span&gt;&lt;br style=&quot;forced-color-adjust: none; padding: 0px; margin: 0px; color: rgb(0, 0, 0); font-family: Helvetica; font-size: 12px; font-style: normal; font-variant-ligatures: normal; font-variant-caps: normal; font-weight: 400; letter-spacing: normal; orphans: 2; text-align: left; text-indent: 0px; text-transform: none; widows: 2; word-spacing: 0px; -webkit-text-stroke-width: 0px; white-space: normal; background-color: rgb(251, 251, 251); text-decoration-thickness: initial; text-decoration-style: initial; text-decoration-color: initial;&quot;&gt;&lt;span style=&quot;color: rgb(0, 0, 0); font-family: Helvetica; font-size: 12px; font-style: normal; font-variant-ligatures: normal; font-variant-caps: normal; font-weight: 400; letter-spacing: normal; orphans: 2; text-align: left; text-indent: 0px; text-transform: none; widows: 2; word-spacing: 0px; -webkit-text-stroke-width: 0px; white-space: normal; background-color: rgb(251, 251, 251); text-decoration-thickness: initial; text-decoration-style: initial; text-decoration-color: initial; display: inline !important; float: none;&quot;&gt;&amp;nbsp;&amp;nbsp;&amp;nbsp;&amp;nbsp;&quot;mesage&quot;:&quot;Online&quot;,&lt;/span&gt;&lt;br style=&quot;forced-color-adjust: none; padding: 0px; margin: 0px; color: rgb(0, 0, 0); font-family: Helvetica; font-size: 12px; font-style: normal; font-variant-ligatures: normal; font-variant-caps: normal; font-weight: 400; letter-spacing: normal; orphans: 2; text-align: left; text-indent: 0px; text-transform: none; widows: 2; word-spacing: 0px; -webkit-text-stroke-width: 0px; white-space: normal; background-color: rgb(251, 251, 251); text-decoration-thickness: initial; text-decoration-style: initial; text-decoration-color: initial;&quot;&gt;&lt;span style=&quot;color: rgb(0, 0, 0); font-family: Helvetica; font-size: 12px; font-style: normal; font-variant-ligatures: normal; font-variant-caps: normal; font-weight: 400; letter-spacing: normal; orphans: 2; text-align: left; text-indent: 0px; text-transform: none; widows: 2; word-spacing: 0px; -webkit-text-stroke-width: 0px; white-space: normal; background-color: rgb(251, 251, 251); text-decoration-thickness: initial; text-decoration-style: initial; text-decoration-color: initial; display: inline !important; float: none;&quot;&gt;&amp;nbsp;&amp;nbsp;&amp;nbsp;&amp;nbsp;&quot;metadata&quot;:{&lt;/span&gt;&lt;br style=&quot;forced-color-adjust: none; padding: 0px; margin: 0px; color: rgb(0, 0, 0); font-family: Helvetica; font-size: 12px; font-style: normal; font-variant-ligatures: normal; font-variant-caps: normal; font-weight: 400; letter-spacing: normal; orphans: 2; text-align: left; text-indent: 0px; text-transform: none; widows: 2; word-spacing: 0px; -webkit-text-stroke-width: 0px; white-space: normal; background-color: rgb(251, 251, 251); text-decoration-thickness: initial; text-decoration-style: initial; text-decoration-color: initial;&quot;&gt;&lt;span style=&quot;color: rgb(0, 0, 0); font-family: Helvetica; font-size: 12px; font-style: normal; font-variant-ligatures: normal; font-variant-caps: normal; font-weight: 400; letter-spacing: normal; orphans: 2; text-align: left; text-indent: 0px; text-transform: none; widows: 2; word-spacing: 0px; -webkit-text-stroke-width: 0px; white-space: normal; background-color: rgb(251, 251, 251); text-decoration-thickness: initial; text-decoration-style: initial; text-decoration-color: initial; display: inline !important; float: none;&quot;&gt;&amp;nbsp;&amp;nbsp;&amp;nbsp;&amp;nbsp;&amp;nbsp;&amp;nbsp;&amp;nbsp;&amp;nbsp;&quot;notification&quot;:true&lt;/span&gt;&lt;br style=&quot;forced-color-adjust: none; padding: 0px; margin: 0px; color: rgb(0, 0, 0); font-family: Helvetica; font-size: 12px; font-style: normal; font-variant-ligatures: normal; font-variant-caps: normal; font-weight: 400; letter-spacing: normal; orphans: 2; text-align: left; text-indent: 0px; text-transform: none; widows: 2; word-spacing: 0px; -webkit-text-stroke-width: 0px; white-space: normal; background-color: rgb(251, 251, 251); text-decoration-thickness: initial; text-decoration-style: initial; text-decoration-color: initial;&quot;&gt;&lt;span style=&quot;color: rgb(0, 0, 0); font-family: Helvetica; font-size: 12px; font-style: normal; font-variant-ligatures: normal; font-variant-caps: normal; font-weight: 400; letter-spacing: normal; orphans: 2; text-align: left; text-indent: 0px; text-transform: none; widows: 2; word-spacing: 0px; -webkit-text-stroke-width: 0px; white-space: normal; background-color: rgb(251, 251, 251); text-decoration-thickness: initial; text-decoration-style: initial; text-decoration-color: initial; display: inline !important; float: none;&quot;&gt;&amp;nbsp;&amp;nbsp;&amp;nbsp;&amp;nbsp;}&lt;/span&gt;&lt;br style=&quot;forced-color-adjust: none; padding: 0px; margin: 0px; color: rgb(0, 0, 0); font-family: Helvetica; font-size: 12px; font-style: normal; font-variant-ligatures: normal; font-variant-caps: normal; font-weight: 400; letter-spacing: normal; orphans: 2; text-align: left; text-indent: 0px; text-transform: none; widows: 2; word-spacing: 0px; -webkit-text-stroke-width: 0px; white-space: normal; background-color: rgb(251, 251, 251); text-decoration-thickness: initial; text-decoration-style: initial; text-decoration-color: initial;&quot;&gt;&lt;span style=&quot;color: rgb(0, 0, 0); font-family: Helvetica; font-size: 12px; font-style: normal; font-variant-ligatures: normal; font-variant-caps: normal; font-weight: 400; letter-spacing: normal; orphans: 2; text-align: left; text-indent: 0px; text-transform: none; widows: 2; word-spacing: 0px; -webkit-text-stroke-width: 0px; white-space: normal; background-color: rgb(251, 251, 251); text-decoration-thickness: initial; text-decoration-style: initial; text-decoration-color: initial; display: inline !important; float: none;&quot;&gt;},&lt;/span&gt;&lt;br style=&quot;forced-color-adjust: none; padding: 0px; margin: 0px; color: rgb(0, 0, 0); font-family: Helvetica; font-size: 12px; font-style: normal; font-variant-ligatures: normal; font-variant-caps: normal; font-weight: 400; letter-spacing: normal; orphans: 2; text-align: left; text-indent: 0px; text-transform: none; widows: 2; word-spacing: 0px; -webkit-text-stroke-width: 0px; white-space: normal; background-color: rgb(251, 251, 251); text-decoration-thickness: initial; text-decoration-style: initial; text-decoration-color: initial;&quot;&gt;&lt;span style=&quot;color: rgb(0, 0, 0); font-family: Helvetica; font-size: 12px; font-style: normal; font-variant-ligatures: normal; font-variant-caps: normal; font-weight: 400; letter-spacing: normal; orphans: 2; text-align: left; text-indent: 0px; text-transform: none; widows: 2; word-spacing: 0px; -webkit-text-stroke-width: 0px; white-space: normal; background-color: rgb(251, 251, 251); text-decoration-thickness: initial; text-decoration-style: initial; text-decoration-color: initial; display: inline !important; float: none;&quot;&gt;```&lt;/span&gt;&lt;/div&gt;" style="text;whiteSpace=wrap;html=1;" parent="1" vertex="1">
          <mxGeometry x="4940" y="100" width="210" height="250" as="geometry" />
        </mxCell>
        <mxCell id="1aHIVDsz0oUcndWCjiS_-62" style="edgeStyle=orthogonalEdgeStyle;rounded=0;orthogonalLoop=1;jettySize=auto;html=1;entryX=0.5;entryY=0;entryDx=0;entryDy=0;entryPerimeter=0;exitX=0.5;exitY=1;exitDx=0;exitDy=0;exitPerimeter=0;" parent="1" edge="1">
          <mxGeometry relative="1" as="geometry">
            <mxPoint x="5010" y="500" as="sourcePoint" />
            <mxPoint x="5010" y="580" as="targetPoint" />
          </mxGeometry>
        </mxCell>
        <mxCell id="1aHIVDsz0oUcndWCjiS_-63" value="{&#xa;   &quot;user_id&quot;: &quot;string (external ID)&quot;,&#xa;   &quot;status&quot;: &quot;string (e.g., &#39;ONLINE&#39;, &#39;IDLE&#39;, &#39;DO_NOT_DISTRUB&#39;, &#39;INVISIBLE&#39;)&quot;&#xa;}" style="text;whiteSpace=wrap;" parent="1" vertex="1">
          <mxGeometry x="5140" y="590" width="430" height="100" as="geometry" />
        </mxCell>
        <object placeholders="1" c4Name="Broker" c4Type="Container" c4Technology="Apache Kafka" c4Description="" label="&lt;font style=&quot;font-size: 16px&quot;&gt;&lt;b&gt;%c4Name%&lt;/b&gt;&lt;/font&gt;&lt;div&gt;[%c4Type%:&amp;nbsp;%c4Technology%]&lt;/div&gt;&lt;br&gt;&lt;div&gt;&lt;font style=&quot;font-size: 11px&quot;&gt;&lt;font color=&quot;#E6E6E6&quot;&gt;%c4Description%&lt;/font&gt;&lt;/div&gt;" id="1aHIVDsz0oUcndWCjiS_-64">
          <mxCell style="shape=cylinder3;size=15;direction=south;whiteSpace=wrap;html=1;boundedLbl=1;rounded=0;labelBackgroundColor=none;fillColor=#23A2D9;fontSize=12;fontColor=#ffffff;align=center;strokeColor=#0E7DAD;metaEdit=1;points=[[0.5,0,0],[1,0.25,0],[1,0.5,0],[1,0.75,0],[0.5,1,0],[0,0.75,0],[0,0.5,0],[0,0.25,0]];resizable=0;" parent="1" vertex="1">
            <mxGeometry x="5560" y="390" width="240" height="120" as="geometry" />
          </mxCell>
        </object>
        <mxCell id="1aHIVDsz0oUcndWCjiS_-65" value="{&#xa;   &quot;user_id&quot;: &quot;string (external ID)&quot;,&#xa;   &quot;status&quot;: &quot;string (e.g., &#39;ONLINE&#39;, &#39;IDLE&#39;, &#39;DO_NOT_DISTRUB&#39;, &#39;INVISIBLE&#39;)&quot;&#xa;   &quot;timestamp&quot;: &quot;timestamp (e.g., 2398020423)&quot;, ,&#xa;}" style="text;whiteSpace=wrap;" parent="1" vertex="1">
          <mxGeometry x="5160" y="440" width="510" height="100" as="geometry" />
        </mxCell>
        <mxCell id="1aHIVDsz0oUcndWCjiS_-66" style="edgeStyle=orthogonalEdgeStyle;rounded=0;orthogonalLoop=1;jettySize=auto;html=1;entryX=0.5;entryY=1;entryDx=0;entryDy=0;entryPerimeter=0;exitX=1;exitY=0.5;exitDx=0;exitDy=0;exitPerimeter=0;" parent="1" target="1aHIVDsz0oUcndWCjiS_-64" edge="1">
          <mxGeometry relative="1" as="geometry">
            <mxPoint x="5140" y="440" as="sourcePoint" />
            <mxPoint x="5030" y="670" as="targetPoint" />
          </mxGeometry>
        </mxCell>
        <mxCell id="1aHIVDsz0oUcndWCjiS_-67" value="User Status Changed" style="rounded=1;whiteSpace=wrap;html=1;fillColor=#CC6600;strokeColor=#FFFFFF;fontColor=#FFFFFF;fontSize=14;fontStyle=1" parent="1" vertex="1">
          <mxGeometry x="5260" y="360" width="200" height="80" as="geometry" />
        </mxCell>
        <mxCell id="1aHIVDsz0oUcndWCjiS_-68" value="{&#xa;   &quot;user_id&quot;: &quot;string (external ID)&quot;,&#xa;   &quot;status&quot;: &quot;string (e.g., &#39;ONLINE&#39;, &#39;IDLE&#39;, &#39;DO_NOT_DISTRUB&#39;, &#39;INVISIBLE&#39;)&quot;&#xa;   &quot;customMessage&quot;:&quot;string&quot;&#xa;}" style="text;whiteSpace=wrap;" parent="1" vertex="1">
          <mxGeometry x="4600" y="450" width="510" height="100" as="geometry" />
        </mxCell>
        <mxCell id="1aHIVDsz0oUcndWCjiS_-71" value="Group Member Added" style="rounded=1;whiteSpace=wrap;html=1;fillColor=#CC6600;strokeColor=#FFFFFF;fontColor=#FFFFFF;fontSize=14;fontStyle=1" parent="1" vertex="1">
          <mxGeometry x="1615" y="1160" width="200" height="80" as="geometry" />
        </mxCell>
        <mxCell id="1aHIVDsz0oUcndWCjiS_-72" value="Group Member Removed" style="rounded=1;whiteSpace=wrap;html=1;fillColor=#CC6600;strokeColor=#FFFFFF;fontColor=#FFFFFF;fontSize=14;fontStyle=1" parent="1" vertex="1">
          <mxGeometry x="1615" y="1250" width="200" height="80" as="geometry" />
        </mxCell>
        <mxCell id="9S-9ZKnmNGdtbsw9nIwP-1" value="Group Member Presence Status Changed Event per Group" style="rounded=1;whiteSpace=wrap;html=1;fillColor=#ffe6cc;strokeColor=#d79b00;fontSize=14;fontStyle=1" parent="1" vertex="1">
          <mxGeometry x="2895" y="980" width="330" height="110" as="geometry" />
        </mxCell>
        <mxCell id="q74Vd6WLOZgE-dS4ebV6-1" value="Group Member" style="rounded=1;whiteSpace=wrap;html=1;fillColor=#663300;strokeColor=#FFFFFF;fontColor=#FFFFFF;fontSize=14;fontStyle=1" parent="1" vertex="1">
          <mxGeometry x="1615" y="1060" width="200" height="80" as="geometry" />
        </mxCell>
        <mxCell id="sK6Ifwkpx4v13yS5bJAy-1" value="Group Members Read Model&amp;nbsp;" style="rounded=1;whiteSpace=wrap;html=1;fillColor=#265E26;strokeColor=#FFFFFF;fontColor=#FFFFFF;fontSize=14;fontStyle=1" parent="1" vertex="1">
          <mxGeometry x="1615" y="1340" width="200" height="80" as="geometry" />
        </mxCell>
        <mxCell id="sK6Ifwkpx4v13yS5bJAy-2" value="{&#xa;    &quot;domainObjectTye&quot;: &quot;string (e.g. &#39;FRIEND_LIST&#39;)&quot;, &#xa;    &quot;domainObjectId&quot;: &quot;string (external ID )&quot;,&#xa;    &quot;members&quot;:[&#xa;        {&#xa;            &quot;userId&quot;:&quot;string (external ID)&quot;,&#xa;            &quot;status&quot;:&quot;string (e.g., &#39;ONLINE&#39;, &#39;IDLE&#39;)&quot;,&#xa;            &quot;timestamp&quot;: &quot;timestamp (e.g., 2398020423)&quot;&#xa;        }&#xa;    ]&#xa;}," style="text;whiteSpace=wrap;" parent="1" vertex="1">
          <mxGeometry x="1835" y="1350" width="320" height="180" as="geometry" />
        </mxCell>
        <mxCell id="sK6Ifwkpx4v13yS5bJAy-3" value="User Groups Read Model" style="rounded=1;whiteSpace=wrap;html=1;fillColor=#265E26;strokeColor=#FFFFFF;fontColor=#FFFFFF;fontSize=14;fontStyle=1" parent="1" vertex="1">
          <mxGeometry x="1615" y="1530" width="200" height="80" as="geometry" />
        </mxCell>
        <mxCell id="sK6Ifwkpx4v13yS5bJAy-4" value="{&#xa;    &quot;userId&quot;:&quot;string (external ID)&quot;,&#xa;    &quot;groups&quot;:[&#xa;        {&#xa;            &quot;domainObjectTye&quot;: &quot;string (e.g. &#39;FRIEND_LIST&#39;, &#39;CHANNEL&#39;)&quot;, &#xa;            &quot;domainObjectId&quot;: &quot;string (external ID )&quot;,&#xa;        },&#xa;    ]&#xa;}" style="text;whiteSpace=wrap;" parent="1" vertex="1">
          <mxGeometry x="1835" y="1550" width="390" height="150" as="geometry" />
        </mxCell>
        <mxCell id="sK6Ifwkpx4v13yS5bJAy-5" value="Add Group Member Requested" style="rounded=1;whiteSpace=wrap;html=1;fillColor=#CC6600;strokeColor=#FFFFFF;fontColor=#FFFFFF;fontSize=14;fontStyle=1" parent="1" vertex="1">
          <mxGeometry x="1385" y="1160" width="200" height="80" as="geometry" />
        </mxCell>
        <mxCell id="sK6Ifwkpx4v13yS5bJAy-8" value="Group Member Status Changed" style="rounded=1;whiteSpace=wrap;html=1;fillColor=#CC6600;strokeColor=#FFFFFF;fontColor=#FFFFFF;fontSize=14;fontStyle=1" parent="1" vertex="1">
          <mxGeometry x="3330" y="1150" width="200" height="80" as="geometry" />
        </mxCell>
        <mxCell id="sK6Ifwkpx4v13yS5bJAy-9" value="Group Member Status Changed" style="rounded=1;whiteSpace=wrap;html=1;fillColor=#CC6600;strokeColor=#FFFFFF;fontColor=#FFFFFF;fontSize=14;fontStyle=1" parent="1" vertex="1">
          <mxGeometry x="3245" y="1635" width="200" height="80" as="geometry" />
        </mxCell>
        <mxCell id="sK6Ifwkpx4v13yS5bJAy-10" value="Group Member Status Changed" style="rounded=1;whiteSpace=wrap;html=1;fillColor=#CC6600;strokeColor=#FFFFFF;fontColor=#FFFFFF;fontSize=14;fontStyle=1" parent="1" vertex="1">
          <mxGeometry x="2200" y="1713" width="200" height="80" as="geometry" />
        </mxCell>
        <mxCell id="sK6Ifwkpx4v13yS5bJAy-11" value="User Status Changed" style="rounded=1;whiteSpace=wrap;html=1;fillColor=#CC6600;strokeColor=#FFFFFF;fontColor=#FFFFFF;fontSize=14;fontStyle=1" parent="1" vertex="1">
          <mxGeometry x="2595" y="1190" width="200" height="80" as="geometry" />
        </mxCell>
        <mxCell id="4UBBkmqZQU5W0IxFpf4w-1" value="Group Member Status Read Model" style="rounded=1;whiteSpace=wrap;html=1;fillColor=#265E26;strokeColor=#FFFFFF;fontColor=#FFFFFF;fontSize=14;fontStyle=1" parent="1" vertex="1">
          <mxGeometry x="2755" y="1720" width="200" height="80" as="geometry" />
        </mxCell>
        <mxCell id="4UBBkmqZQU5W0IxFpf4w-5" value="Remove Group Member Requested" style="rounded=1;whiteSpace=wrap;html=1;fillColor=#CC6600;strokeColor=#FFFFFF;fontColor=#FFFFFF;fontSize=14;fontStyle=1" parent="1" vertex="1">
          <mxGeometry x="1385" y="1250" width="200" height="80" as="geometry" />
        </mxCell>
        <mxCell id="4UBBkmqZQU5W0IxFpf4w-6" style="edgeStyle=orthogonalEdgeStyle;rounded=0;orthogonalLoop=1;jettySize=auto;html=1;exitX=0.75;exitY=1;exitDx=0;exitDy=0;exitPerimeter=0;" parent="1" source="1aHIVDsz0oUcndWCjiS_-24" target="1aHIVDsz0oUcndWCjiS_-25" edge="1">
          <mxGeometry relative="1" as="geometry">
            <mxPoint x="5430" y="1605" as="sourcePoint" />
            <mxPoint x="5160" y="1605" as="targetPoint" />
            <Array as="points">
              <mxPoint x="5100" y="1565" />
              <mxPoint x="5530" y="1565" />
            </Array>
          </mxGeometry>
        </mxCell>
        <mxCell id="4UBBkmqZQU5W0IxFpf4w-7" value="Stream of Events&lt;div&gt;[SSE]&lt;/div&gt;" style="edgeLabel;html=1;align=center;verticalAlign=middle;resizable=0;points=[];" parent="4UBBkmqZQU5W0IxFpf4w-6" vertex="1" connectable="0">
          <mxGeometry x="0.1358" y="1" relative="1" as="geometry">
            <mxPoint as="offset" />
          </mxGeometry>
        </mxCell>
        <object placeholders="1" c4Name="Real-time Publisher" c4Type="Component" c4Technology="" c4Description="send Events to Users" label="&lt;font style=&quot;font-size: 16px&quot;&gt;&lt;b&gt;%c4Name%&lt;/b&gt;&lt;/font&gt;&lt;div&gt;[%c4Type%: %c4Technology%]&lt;/div&gt;&lt;br&gt;&lt;div&gt;&lt;font style=&quot;font-size: 11px&quot;&gt;%c4Description%&lt;/font&gt;&lt;/div&gt;" id="4UBBkmqZQU5W0IxFpf4w-8">
          <mxCell style="rounded=1;whiteSpace=wrap;html=1;labelBackgroundColor=none;fillColor=#63BEF2;fontColor=#ffffff;align=center;arcSize=6;strokeColor=#2086C9;metaEdit=1;resizable=0;points=[[0.25,0,0],[0.5,0,0],[0.75,0,0],[1,0.25,0],[1,0.5,0],[1,0.75,0],[0.75,1,0],[0.5,1,0],[0.25,1,0],[0,0.75,0],[0,0.5,0],[0,0.25,0]];" parent="1" vertex="1">
            <mxGeometry x="4630" y="1565" width="240" height="120" as="geometry" />
          </mxCell>
        </object>
        <object placeholders="1" c4Name="Real-time Publisher" c4Type="Component" c4Technology="" c4Description="send Events to Users" label="&lt;font style=&quot;font-size: 16px&quot;&gt;&lt;b&gt;%c4Name%&lt;/b&gt;&lt;/font&gt;&lt;div&gt;[%c4Type%: %c4Technology%]&lt;/div&gt;&lt;br&gt;&lt;div&gt;&lt;font style=&quot;font-size: 11px&quot;&gt;%c4Description%&lt;/font&gt;&lt;/div&gt;" id="4UBBkmqZQU5W0IxFpf4w-10">
          <mxCell style="rounded=1;whiteSpace=wrap;html=1;labelBackgroundColor=none;fillColor=#63BEF2;fontColor=#ffffff;align=center;arcSize=6;strokeColor=#2086C9;metaEdit=1;resizable=0;points=[[0.25,0,0],[0.5,0,0],[0.75,0,0],[1,0.25,0],[1,0.5,0],[1,0.75,0],[0.75,1,0],[0.5,1,0],[0.25,1,0],[0,0.75,0],[0,0.5,0],[0,0.25,0]];" parent="1" vertex="1">
            <mxGeometry x="4630" y="1780" width="240" height="120" as="geometry" />
          </mxCell>
        </object>
        <mxCell id="iKFsk2QQ1PW52-xUESbg-1" value="&lt;div&gt;PresenceChangeDelayPolicy&lt;/div&gt;&lt;div&gt;Prevent rapid or unnecessary status changes by requiring a minimum delay before a presence status update is committed.&amp;nbsp;Special case for ONLINE&lt;br&gt;&lt;/div&gt;" style="rounded=1;whiteSpace=wrap;html=1;fillColor=#7F00FF;strokeColor=#FFFFFF;fontColor=#FFFFFF;fontSize=14;fontStyle=1" parent="1" vertex="1">
          <mxGeometry x="2870" y="380" width="320" height="120" as="geometry" />
        </mxCell>
        <object placeholders="1" c4Name="Group" c4Type="Component" c4Technology="" c4Description="recive &quot;heartbeat&quot; signal.&#xa;&#xa;" label="&lt;font style=&quot;font-size: 16px&quot;&gt;&lt;b&gt;%c4Name%&lt;/b&gt;&lt;/font&gt;&lt;div&gt;[%c4Type%: %c4Technology%]&lt;/div&gt;&lt;br&gt;&lt;div&gt;&lt;font style=&quot;font-size: 11px&quot;&gt;%c4Description%&lt;/font&gt;&lt;/div&gt;" id="oEl6P71FNa8JDxDjssD3-1">
          <mxCell style="rounded=1;whiteSpace=wrap;html=1;labelBackgroundColor=none;fillColor=#63BEF2;fontColor=#ffffff;align=center;arcSize=6;strokeColor=#2086C9;metaEdit=1;resizable=0;points=[[0.25,0,0],[0.5,0,0],[0.75,0,0],[1,0.25,0],[1,0.5,0],[1,0.75,0],[0.75,1,0],[0.5,1,0],[0.25,1,0],[0,0.75,0],[0,0.5,0],[0,0.25,0]];" vertex="1" parent="1">
            <mxGeometry x="2985" y="1430" width="240" height="120" as="geometry" />
          </mxCell>
        </object>
        <object placeholders="1" label="&lt;font style=&quot;font-size: 16px&quot;&gt;&lt;b&gt;&lt;div style=&quot;text-align: left&quot;&gt;%top%&lt;/div&gt;&lt;/b&gt;&lt;/font&gt;&lt;div style=&quot;text-align: left&quot;&gt;%bottom%&lt;/div&gt;" top="Group" bottom="" id="UAVn7-agEcql3Kc7Cxlo-1">
          <mxCell style="rounded=1;fontSize=11;whiteSpace=wrap;html=1;dashed=1;arcSize=20;fillColor=none;strokeColor=#666666;fontColor=#333333;labelBackgroundColor=none;align=left;verticalAlign=bottom;labelBorderColor=none;spacingTop=0;spacing=10;dashPattern=8 4;metaEdit=1;rotatable=0;perimeter=rectanglePerimeter;noLabel=0;labelPadding=0;allowArrows=0;connectable=0;expand=0;recursiveResize=0;editable=1;pointerEvents=0;absoluteArcSize=1;points=[[0.25,0,0],[0.5,0,0],[0.75,0,0],[1,0.25,0],[1,0.5,0],[1,0.75,0],[0.75,1,0],[0.5,1,0],[0.25,1,0],[0,0.75,0],[0,0.5,0],[0,0.25,0]];" vertex="1" parent="1">
            <mxGeometry x="1270" y="850" width="3330" height="1200" as="geometry" />
          </mxCell>
        </object>
        <mxCell id="UAVn7-agEcql3Kc7Cxlo-2" value="Group Member" style="rounded=1;whiteSpace=wrap;html=1;fillColor=#663300;strokeColor=#FFFFFF;fontColor=#FFFFFF;fontSize=14;fontStyle=1" vertex="1" parent="1">
          <mxGeometry x="2850" y="1220" width="200" height="80" as="geometry" />
        </mxCell>
        <mxCell id="UAVn7-agEcql3Kc7Cxlo-3" value="Group Member" style="rounded=1;whiteSpace=wrap;html=1;fillColor=#663300;strokeColor=#FFFFFF;fontColor=#FFFFFF;fontSize=14;fontStyle=1" vertex="1" parent="1">
          <mxGeometry x="3240" y="1730" width="200" height="80" as="geometry" />
        </mxCell>
        <mxCell id="UAVn7-agEcql3Kc7Cxlo-4" style="edgeStyle=orthogonalEdgeStyle;rounded=0;orthogonalLoop=1;jettySize=auto;html=1;entryX=0.5;entryY=0;entryDx=0;entryDy=0;entryPerimeter=0;" edge="1" parent="1" source="1aHIVDsz0oUcndWCjiS_-54">
          <mxGeometry relative="1" as="geometry">
            <mxPoint x="3360" y="380" as="targetPoint" />
          </mxGeometry>
        </mxCell>
        <object placeholders="1" c4Name="Presence" c4Type="Component" c4Technology="" c4Description="recive &quot;heartbeat&quot; signal.&#xa;&#xa;" label="&lt;font style=&quot;font-size: 16px&quot;&gt;&lt;b&gt;%c4Name%&lt;/b&gt;&lt;/font&gt;&lt;div&gt;[%c4Type%: %c4Technology%]&lt;/div&gt;&lt;br&gt;&lt;div&gt;&lt;font style=&quot;font-size: 11px&quot;&gt;%c4Description%&lt;/font&gt;&lt;/div&gt;" id="UAVn7-agEcql3Kc7Cxlo-6">
          <mxCell style="rounded=1;whiteSpace=wrap;html=1;labelBackgroundColor=none;fillColor=#63BEF2;fontColor=#ffffff;align=center;arcSize=6;strokeColor=#2086C9;metaEdit=1;resizable=0;points=[[0.25,0,0],[0.5,0,0],[0.75,0,0],[1,0.25,0],[1,0.5,0],[1,0.75,0],[0.75,1,0],[0.5,1,0],[0.25,1,0],[0,0.75,0],[0,0.5,0],[0,0.25,0]];" vertex="1" parent="1">
            <mxGeometry x="2515" y="-20" width="240" height="120" as="geometry" />
          </mxCell>
        </object>
        <mxCell id="UAVn7-agEcql3Kc7Cxlo-7" value="User Presence" style="rounded=1;whiteSpace=wrap;html=1;fillColor=#663300;strokeColor=#FFFFFF;fontColor=#FFFFFF;fontSize=14;fontStyle=1" vertex="1" parent="1">
          <mxGeometry x="3260" y="534.95" width="200" height="80" as="geometry" />
        </mxCell>
        <mxCell id="UAVn7-agEcql3Kc7Cxlo-9" value="User Presence" style="rounded=1;whiteSpace=wrap;html=1;fillColor=#663300;strokeColor=#FFFFFF;fontColor=#FFFFFF;fontSize=14;fontStyle=1" vertex="1" parent="1">
          <mxGeometry x="2990" y="180.00000000000006" width="200" height="80" as="geometry" />
        </mxCell>
        <mxCell id="UAVn7-agEcql3Kc7Cxlo-10" value="&lt;span style=&quot;color: rgb(255, 255, 255);&quot;&gt;Heartbeat&lt;/span&gt;" style="rounded=1;whiteSpace=wrap;html=1;fillColor=#2B46F0;strokeColor=#6c8ebf;fontSize=14;fontStyle=1" vertex="1" parent="1">
          <mxGeometry x="2630" y="480" width="200" height="80" as="geometry" />
        </mxCell>
        <object placeholders="1" label="&lt;font style=&quot;font-size: 16px&quot;&gt;&lt;b&gt;&lt;div style=&quot;text-align: left&quot;&gt;%top%&lt;/div&gt;&lt;/b&gt;&lt;/font&gt;&lt;div style=&quot;text-align: left&quot;&gt;%bottom%&lt;/div&gt;" top="Presence" bottom="" id="UAVn7-agEcql3Kc7Cxlo-12">
          <mxCell style="rounded=1;fontSize=11;whiteSpace=wrap;html=1;dashed=1;arcSize=20;fillColor=none;strokeColor=#666666;fontColor=#333333;labelBackgroundColor=none;align=left;verticalAlign=bottom;labelBorderColor=none;spacingTop=0;spacing=10;dashPattern=8 4;metaEdit=1;rotatable=0;perimeter=rectanglePerimeter;noLabel=0;labelPadding=0;allowArrows=0;connectable=0;expand=0;recursiveResize=0;editable=1;pointerEvents=0;absoluteArcSize=1;points=[[0.25,0,0],[0.5,0,0],[0.75,0,0],[1,0.25,0],[1,0.5,0],[1,0.75,0],[0.75,1,0],[0.5,1,0],[0.25,1,0],[0,0.75,0],[0,0.5,0],[0,0.25,0]];" vertex="1" parent="1">
            <mxGeometry x="2020" y="-90" width="2190" height="870" as="geometry" />
          </mxCell>
        </object>
        <object placeholders="1" label="&lt;font style=&quot;font-size: 16px&quot;&gt;&lt;b&gt;&lt;div style=&quot;text-align: left&quot;&gt;%top%&lt;/div&gt;&lt;/b&gt;&lt;/font&gt;&lt;div style=&quot;text-align: left&quot;&gt;%bottom%&lt;/div&gt;" top="Status" bottom="" id="UAVn7-agEcql3Kc7Cxlo-13">
          <mxCell style="rounded=1;fontSize=11;whiteSpace=wrap;html=1;dashed=1;arcSize=20;fillColor=none;strokeColor=#666666;fontColor=#333333;labelBackgroundColor=none;align=left;verticalAlign=bottom;labelBorderColor=none;spacingTop=0;spacing=10;dashPattern=8 4;metaEdit=1;rotatable=0;perimeter=rectanglePerimeter;noLabel=0;labelPadding=0;allowArrows=0;connectable=0;expand=0;recursiveResize=0;editable=1;pointerEvents=0;absoluteArcSize=1;points=[[0.25,0,0],[0.5,0,0],[0.75,0,0],[1,0.25,0],[1,0.5,0],[1,0.75,0],[0.75,1,0],[0.5,1,0],[0.25,1,0],[0,0.75,0],[0,0.5,0],[0,0.25,0]];" vertex="1" parent="1">
            <mxGeometry x="4290" y="-90" width="1610" height="870" as="geometry" />
          </mxCell>
        </object>
        <mxCell id="UAVn7-agEcql3Kc7Cxlo-14" value="User Status" style="rounded=1;whiteSpace=wrap;html=1;fillColor=#663300;strokeColor=#FFFFFF;fontColor=#FFFFFF;fontSize=14;fontStyle=1" vertex="1" parent="1">
          <mxGeometry x="4910" y="580" width="200" height="80" as="geometry" />
        </mxCell>
        <mxCell id="UAVn7-agEcql3Kc7Cxlo-15" value="&lt;span style=&quot;color: rgb(255, 255, 255);&quot;&gt;Change Status Command&lt;/span&gt;" style="rounded=1;whiteSpace=wrap;html=1;fillColor=#2B46F0;strokeColor=#6c8ebf;fontSize=14;fontStyle=1" vertex="1" parent="1">
          <mxGeometry x="4630" y="350" width="200" height="80" as="geometry" />
        </mxCell>
        <object placeholders="1" label="&lt;font style=&quot;font-size: 16px&quot;&gt;&lt;b&gt;&lt;div style=&quot;text-align: left&quot;&gt;%top%&lt;/div&gt;&lt;/b&gt;&lt;/font&gt;&lt;div style=&quot;text-align: left&quot;&gt;%bottom%&lt;/div&gt;" top="Real-time publisher" bottom="" id="UAVn7-agEcql3Kc7Cxlo-16">
          <mxCell style="rounded=1;fontSize=11;whiteSpace=wrap;html=1;dashed=1;arcSize=20;fillColor=none;strokeColor=#666666;fontColor=#333333;labelBackgroundColor=none;align=left;verticalAlign=bottom;labelBorderColor=none;spacingTop=0;spacing=10;dashPattern=8 4;metaEdit=1;rotatable=0;perimeter=rectanglePerimeter;noLabel=0;labelPadding=0;allowArrows=0;connectable=0;expand=0;recursiveResize=0;editable=1;pointerEvents=0;absoluteArcSize=1;points=[[0.25,0,0],[0.5,0,0],[0.75,0,0],[1,0.25,0],[1,0.5,0],[1,0.75,0],[0.75,1,0],[0.5,1,0],[0.25,1,0],[0,0.75,0],[0,0.5,0],[0,0.25,0]];" vertex="1" parent="1">
            <mxGeometry x="4560" y="1250" width="1150" height="870" as="geometry" />
          </mxCell>
        </object>
      </root>
    </mxGraphModel>
  </diagram>
  <diagram id="f8RzPRviFvx0FjwxshnT" name="legend">
    <mxGraphModel dx="1674" dy="844" grid="1" gridSize="10" guides="1" tooltips="1" connect="1" arrows="1" fold="1" page="1" pageScale="1" pageWidth="827" pageHeight="1169" math="0" shadow="0">
      <root>
        <mxCell id="0" />
        <mxCell id="1" parent="0" />
        <object placeholders="1" label="&lt;font style=&quot;font-size: 16px&quot;&gt;&lt;b&gt;&lt;div style=&quot;text-align: left&quot;&gt;%top%&lt;/div&gt;&lt;/b&gt;&lt;/font&gt;&lt;div style=&quot;text-align: left&quot;&gt;%bottom%&lt;/div&gt;" top="Legend" bottom="" id="piFIB613wwgbDMk1B_sW-38">
          <mxCell style="rounded=1;fontSize=11;whiteSpace=wrap;html=1;dashed=1;arcSize=20;fillColor=none;strokeColor=#666666;fontColor=#333333;labelBackgroundColor=none;align=left;verticalAlign=bottom;labelBorderColor=none;spacingTop=0;spacing=10;dashPattern=8 4;metaEdit=1;rotatable=0;perimeter=rectanglePerimeter;noLabel=0;labelPadding=0;allowArrows=0;connectable=0;expand=0;recursiveResize=0;editable=1;pointerEvents=0;absoluteArcSize=1;points=[[0.25,0,0],[0.5,0,0],[0.75,0,0],[1,0.25,0],[1,0.5,0],[1,0.75,0],[0.75,1,0],[0.5,1,0],[0.25,1,0],[0,0.75,0],[0,0.5,0],[0,0.25,0]];" parent="1" vertex="1">
            <mxGeometry x="40" y="40" width="1120" height="440" as="geometry" />
          </mxCell>
        </object>
        <object placeholders="1" c4Name="Person" c4Type="Person" c4Description="" label="&lt;font style=&quot;font-size: 16px&quot;&gt;&lt;b&gt;%c4Name%&lt;/b&gt;&lt;/font&gt;&lt;div&gt;[%c4Type%]&lt;/div&gt;&lt;br&gt;&lt;div&gt;&lt;font style=&quot;font-size: 11px&quot;&gt;&lt;font color=&quot;#cccccc&quot;&gt;%c4Description%&lt;/font&gt;&lt;/div&gt;" id="piFIB613wwgbDMk1B_sW-39">
          <mxCell style="html=1;fontSize=11;dashed=0;whiteSpace=wrap;fillColor=#083F75;strokeColor=#06315C;fontColor=#ffffff;shape=mxgraph.c4.person2;align=center;metaEdit=1;points=[[0.5,0,0],[1,0.5,0],[1,0.75,0],[0.75,1,0],[0.5,1,0],[0.25,1,0],[0,0.75,0],[0,0.5,0]];resizable=0;" parent="1" vertex="1">
            <mxGeometry x="80" y="89" width="200" height="180" as="geometry" />
          </mxCell>
        </object>
        <object placeholders="1" c4Name="System" c4Type="Software System" c4Description="" label="&lt;font style=&quot;font-size: 16px&quot;&gt;&lt;b&gt;%c4Name%&lt;/b&gt;&lt;/font&gt;&lt;div&gt;[%c4Type%]&lt;/div&gt;&lt;br&gt;&lt;div&gt;&lt;font style=&quot;font-size: 11px&quot;&gt;&lt;font color=&quot;#cccccc&quot;&gt;%c4Description%&lt;/font&gt;&lt;/div&gt;" id="piFIB613wwgbDMk1B_sW-40">
          <mxCell style="rounded=1;whiteSpace=wrap;html=1;labelBackgroundColor=none;fillColor=#1061B0;fontColor=#ffffff;align=center;arcSize=10;strokeColor=#0D5091;metaEdit=1;resizable=0;points=[[0.25,0,0],[0.5,0,0],[0.75,0,0],[1,0.25,0],[1,0.5,0],[1,0.75,0],[0.75,1,0],[0.5,1,0],[0.25,1,0],[0,0.75,0],[0,0.5,0],[0,0.25,0]];" parent="1" vertex="1">
            <mxGeometry x="320" y="120" width="240" height="120" as="geometry" />
          </mxCell>
        </object>
        <object placeholders="1" c4Name="External system" c4Type="Software System" c4Description="" label="&lt;font style=&quot;font-size: 16px&quot;&gt;&lt;b&gt;%c4Name%&lt;/b&gt;&lt;/font&gt;&lt;div&gt;[%c4Type%]&lt;/div&gt;&lt;br&gt;&lt;div&gt;&lt;font style=&quot;font-size: 11px&quot;&gt;&lt;font color=&quot;#cccccc&quot;&gt;%c4Description%&lt;/font&gt;&lt;/div&gt;" id="piFIB613wwgbDMk1B_sW-41">
          <mxCell style="rounded=1;whiteSpace=wrap;html=1;labelBackgroundColor=none;fillColor=#8C8496;fontColor=#ffffff;align=center;arcSize=10;strokeColor=#736782;metaEdit=1;resizable=0;points=[[0.25,0,0],[0.5,0,0],[0.75,0,0],[1,0.25,0],[1,0.5,0],[1,0.75,0],[0.75,1,0],[0.5,1,0],[0.25,1,0],[0,0.75,0],[0,0.5,0],[0,0.25,0]];" parent="1" vertex="1">
            <mxGeometry x="600" y="120" width="240" height="120" as="geometry" />
          </mxCell>
        </object>
        <object placeholders="1" c4Name="Container" c4Type="Container" c4Technology="" c4Description="" label="&lt;font style=&quot;font-size: 16px&quot;&gt;&lt;b&gt;%c4Name%&lt;/b&gt;&lt;/font&gt;&lt;div&gt;[%c4Type%%c4Technology%]&lt;/div&gt;&lt;br&gt;&lt;div&gt;&lt;font style=&quot;font-size: 11px&quot;&gt;&lt;font color=&quot;#E6E6E6&quot;&gt;%c4Description%&lt;/font&gt;&lt;/div&gt;" id="piFIB613wwgbDMk1B_sW-42">
          <mxCell style="rounded=1;whiteSpace=wrap;html=1;fontSize=11;labelBackgroundColor=none;fillColor=#23A2D9;fontColor=#ffffff;align=center;arcSize=10;strokeColor=#0E7DAD;metaEdit=1;resizable=0;points=[[0.25,0,0],[0.5,0,0],[0.75,0,0],[1,0.25,0],[1,0.5,0],[1,0.75,0],[0.75,1,0],[0.5,1,0],[0.25,1,0],[0,0.75,0],[0,0.5,0],[0,0.25,0]];" parent="1" vertex="1">
            <mxGeometry x="880" y="120" width="240" height="120" as="geometry" />
          </mxCell>
        </object>
        <object placeholders="1" c4Name="Storage" c4Type="Container" c4Technology="" c4Description="" label="&lt;font style=&quot;font-size: 16px&quot;&gt;&lt;b&gt;%c4Name%&lt;/b&gt;&lt;/font&gt;&lt;div&gt;[%c4Type%%c4Technology%]&lt;/div&gt;&lt;br&gt;&lt;div&gt;&lt;font style=&quot;font-size: 11px&quot;&gt;&lt;font color=&quot;#E6E6E6&quot;&gt;%c4Description%&lt;/font&gt;&lt;/div&gt;" id="piFIB613wwgbDMk1B_sW-43">
          <mxCell style="shape=cylinder3;size=15;whiteSpace=wrap;html=1;boundedLbl=1;rounded=0;labelBackgroundColor=none;fillColor=#23A2D9;fontSize=12;fontColor=#ffffff;align=center;strokeColor=#0E7DAD;metaEdit=1;points=[[0.5,0,0],[1,0.25,0],[1,0.5,0],[1,0.75,0],[0.5,1,0],[0,0.75,0],[0,0.5,0],[0,0.25,0]];resizable=0;" parent="1" vertex="1">
            <mxGeometry x="320" y="280" width="240" height="120" as="geometry" />
          </mxCell>
        </object>
        <object placeholders="1" c4Name="Message Bus" c4Type="Container" c4Technology="" c4Description="" label="&lt;font style=&quot;font-size: 16px&quot;&gt;&lt;b&gt;%c4Name%&lt;/b&gt;&lt;/font&gt;&lt;div&gt;[%c4Type%%c4Technology%]&lt;/div&gt;&lt;br&gt;&lt;div&gt;&lt;font style=&quot;font-size: 11px&quot;&gt;&lt;font color=&quot;#E6E6E6&quot;&gt;%c4Description%&lt;/font&gt;&lt;/div&gt;" id="piFIB613wwgbDMk1B_sW-44">
          <mxCell style="shape=cylinder3;size=15;direction=south;whiteSpace=wrap;html=1;boundedLbl=1;rounded=0;labelBackgroundColor=none;fillColor=#23A2D9;fontSize=12;fontColor=#ffffff;align=center;strokeColor=#0E7DAD;metaEdit=1;points=[[0.5,0,0],[1,0.25,0],[1,0.5,0],[1,0.75,0],[0.5,1,0],[0,0.75,0],[0,0.5,0],[0,0.25,0]];resizable=0;" parent="1" vertex="1">
            <mxGeometry x="600" y="280" width="240" height="120" as="geometry" />
          </mxCell>
        </object>
        <object placeholders="1" c4Name="Web browser container" c4Type="Container" c4Technology="" c4Description="" label="&lt;font style=&quot;font-size: 16px&quot;&gt;&lt;b&gt;%c4Name%&lt;/b&gt;&lt;/font&gt;&lt;div&gt;[%c4Type%%c4Technology%]&lt;/div&gt;&lt;br&gt;&lt;div&gt;&lt;font style=&quot;font-size: 11px&quot;&gt;&lt;font color=&quot;#E6E6E6&quot;&gt;%c4Description%&lt;/font&gt;&lt;/div&gt;" id="piFIB613wwgbDMk1B_sW-45">
          <mxCell style="shape=mxgraph.c4.webBrowserContainer2;whiteSpace=wrap;html=1;boundedLbl=1;rounded=0;labelBackgroundColor=none;strokeColor=#118ACD;fillColor=#23A2D9;strokeColor=#118ACD;strokeColor2=#0E7DAD;fontSize=12;fontColor=#ffffff;align=center;metaEdit=1;points=[[0.5,0,0],[1,0.25,0],[1,0.5,0],[1,0.75,0],[0.5,1,0],[0,0.75,0],[0,0.5,0],[0,0.25,0]];resizable=0;" parent="1" vertex="1">
            <mxGeometry x="880" y="280" width="240" height="160" as="geometry" />
          </mxCell>
        </object>
      </root>
    </mxGraphModel>
  </diagram>
  <diagram name="systemContext_presenceSystem" id="WcdvjJeJplrOcA5wXfvf">
    <mxGraphModel dx="1154" dy="582" grid="1" gridSize="10" guides="1" tooltips="1" connect="1" arrows="1" fold="1" page="1" pageScale="1" pageWidth="827" pageHeight="1169" math="0" shadow="0">
      <root>
        <mxCell id="_sVSWJ4QDfecYqiopI3F-0" />
        <mxCell id="_sVSWJ4QDfecYqiopI3F-1" parent="_sVSWJ4QDfecYqiopI3F-0" />
        <object placeholders="1" label="&lt;font style=&quot;font-size: 16px&quot;&gt;&lt;b&gt;&lt;div style=&quot;text-align: left&quot;&gt;%top%&lt;/div&gt;&lt;/b&gt;&lt;/font&gt;&lt;div style=&quot;text-align: left&quot;&gt;%bottom%&lt;/div&gt;" top="[System Context] Presence System" bottom="" id="_sVSWJ4QDfecYqiopI3F-2">
          <mxCell style="rounded=1;fontSize=11;whiteSpace=wrap;html=1;dashed=1;arcSize=20;fillColor=none;strokeColor=#666666;fontColor=#333333;labelBackgroundColor=none;align=left;verticalAlign=bottom;labelBorderColor=none;spacingTop=0;spacing=10;dashPattern=8 4;metaEdit=1;rotatable=0;perimeter=rectanglePerimeter;noLabel=0;labelPadding=0;allowArrows=0;connectable=0;expand=0;recursiveResize=0;editable=1;pointerEvents=0;absoluteArcSize=1;points=[[0.25,0,0],[0.5,0,0],[0.75,0,0],[1,0.25,0],[1,0.5,0],[1,0.75,0],[0.75,1,0],[0.5,1,0],[0.25,1,0],[0,0.75,0],[0,0.5,0],[0,0.25,0]];" parent="_sVSWJ4QDfecYqiopI3F-1" vertex="1">
            <mxGeometry x="40" y="200" width="760" height="560" as="geometry" />
          </mxCell>
        </object>
        <object placeholders="1" c4Name="User" c4Type="Person" c4Description="" label="&lt;font style=&quot;font-size: 16px&quot;&gt;&lt;b&gt;%c4Name%&lt;/b&gt;&lt;/font&gt;&lt;div&gt;[%c4Type%]&lt;/div&gt;&lt;br&gt;&lt;div&gt;&lt;font style=&quot;font-size: 11px&quot;&gt;&lt;font color=&quot;#cccccc&quot;&gt;%c4Description%&lt;/font&gt;&lt;/div&gt;" id="_sVSWJ4QDfecYqiopI3F-3">
          <mxCell style="html=1;fontSize=11;dashed=0;whiteSpace=wrap;fillColor=#083F75;strokeColor=#06315C;fontColor=#ffffff;shape=mxgraph.c4.person2;align=center;metaEdit=1;points=[[0.5,0,0],[1,0.5,0],[1,0.75,0],[0.75,1,0],[0.5,1,0],[0.25,1,0],[0,0.75,0],[0,0.5,0]];resizable=0;" parent="_sVSWJ4QDfecYqiopI3F-1" vertex="1">
            <mxGeometry x="100" y="250" width="200" height="180" as="geometry" />
          </mxCell>
        </object>
        <object placeholders="1" c4Name="Presence System" c4Type="Software System" c4Description=" providing capabilities for managing presence, statuses, and group memberships." label="&lt;font style=&quot;font-size: 16px&quot;&gt;&lt;b&gt;%c4Name%&lt;/b&gt;&lt;/font&gt;&lt;div&gt;[%c4Type%]&lt;/div&gt;&lt;br&gt;&lt;div&gt;&lt;font style=&quot;font-size: 11px&quot;&gt;&lt;font color=&quot;#cccccc&quot;&gt;%c4Description%&lt;/font&gt;&lt;/div&gt;" id="_sVSWJ4QDfecYqiopI3F-5">
          <mxCell style="rounded=1;whiteSpace=wrap;html=1;labelBackgroundColor=none;fillColor=#1061B0;fontColor=#ffffff;align=center;arcSize=10;strokeColor=#0D5091;metaEdit=1;resizable=0;points=[[0.25,0,0],[0.5,0,0],[0.75,0,0],[1,0.25,0],[1,0.5,0],[1,0.75,0],[0.75,1,0],[0.5,1,0],[0.25,1,0],[0,0.75,0],[0,0.5,0],[0,0.25,0]];" parent="_sVSWJ4QDfecYqiopI3F-1" vertex="1">
            <mxGeometry x="80" y="560" width="240" height="120" as="geometry" />
          </mxCell>
        </object>
        <object placeholders="1" c4Type="Relationship" c4Description="authenticate" label="&lt;div style=&quot;text-align: left&quot;&gt;&lt;div style=&quot;text-align: center&quot;&gt;&lt;b&gt;%c4Description%&lt;/b&gt;&lt;/div&gt;" id="_sVSWJ4QDfecYqiopI3F-7">
          <mxCell style="endArrow=blockThin;html=1;fontSize=10;fontColor=#404040;strokeWidth=1;endFill=1;strokeColor=#828282;elbow=vertical;metaEdit=1;endSize=14;startSize=14;jumpStyle=arc;jumpSize=16;rounded=0;edgeStyle=orthogonalEdgeStyle;exitX=1;exitY=0.5;exitDx=0;exitDy=0;exitPerimeter=0;entryX=0;entryY=0.5;entryDx=0;entryDy=0;entryPerimeter=0;" parent="_sVSWJ4QDfecYqiopI3F-1" source="_sVSWJ4QDfecYqiopI3F-3" edge="1">
            <mxGeometry width="240" relative="1" as="geometry">
              <mxPoint x="230" y="480" as="sourcePoint" />
              <mxPoint x="520" y="340" as="targetPoint" />
              <mxPoint as="offset" />
            </mxGeometry>
          </mxCell>
        </object>
        <object placeholders="1" c4Type="Relationship" c4Description="uses" label="&lt;div style=&quot;text-align: left&quot;&gt;&lt;div style=&quot;text-align: center&quot;&gt;&lt;b&gt;%c4Description%&lt;/b&gt;&lt;/div&gt;" id="_sVSWJ4QDfecYqiopI3F-8">
          <mxCell style="endArrow=blockThin;html=1;fontSize=10;fontColor=#404040;strokeWidth=1;endFill=1;strokeColor=#828282;elbow=vertical;metaEdit=1;endSize=14;startSize=14;jumpStyle=arc;jumpSize=16;rounded=0;edgeStyle=orthogonalEdgeStyle;exitX=0.5;exitY=1;exitDx=0;exitDy=0;exitPerimeter=0;entryX=0.5;entryY=0;entryDx=0;entryDy=0;entryPerimeter=0;" parent="_sVSWJ4QDfecYqiopI3F-1" source="_sVSWJ4QDfecYqiopI3F-3" target="_sVSWJ4QDfecYqiopI3F-5" edge="1">
            <mxGeometry width="240" relative="1" as="geometry">
              <mxPoint x="310" y="360" as="sourcePoint" />
              <mxPoint x="460" y="360" as="targetPoint" />
              <mxPoint as="offset" />
            </mxGeometry>
          </mxCell>
        </object>
        <object placeholders="1" c4Type="Relationship" c4Description="take keys" label="&lt;div style=&quot;text-align: left&quot;&gt;&lt;div style=&quot;text-align: center&quot;&gt;&lt;b&gt;%c4Description%&lt;/b&gt;&lt;/div&gt;" id="_sVSWJ4QDfecYqiopI3F-23">
          <mxCell style="endArrow=blockThin;html=1;fontSize=10;fontColor=#404040;strokeWidth=1;endFill=1;strokeColor=#828282;elbow=vertical;metaEdit=1;endSize=14;startSize=14;jumpStyle=arc;jumpSize=16;rounded=0;edgeStyle=orthogonalEdgeStyle;entryX=0.75;entryY=1;entryDx=0;entryDy=0;entryPerimeter=0;exitX=1;exitY=0.5;exitDx=0;exitDy=0;exitPerimeter=0;" parent="_sVSWJ4QDfecYqiopI3F-1" source="_sVSWJ4QDfecYqiopI3F-5" edge="1">
            <mxGeometry width="240" relative="1" as="geometry">
              <mxPoint x="470" y="510" as="sourcePoint" />
              <mxPoint x="700" y="400" as="targetPoint" />
              <Array as="points">
                <mxPoint x="700" y="620" />
              </Array>
              <mxPoint as="offset" />
            </mxGeometry>
          </mxCell>
        </object>
        <object placeholders="1" c4Name="Identity and AccessManagement (IAM)" c4Type="Software System" c4Description="" label="&lt;font style=&quot;font-size: 16px&quot;&gt;&lt;b&gt;%c4Name%&lt;/b&gt;&lt;/font&gt;&lt;div&gt;[%c4Type%]&lt;/div&gt;&lt;br&gt;&lt;div&gt;&lt;font style=&quot;font-size: 11px&quot;&gt;&lt;font color=&quot;#cccccc&quot;&gt;%c4Description%&lt;/font&gt;&lt;/div&gt;" id="6giUvFQTsxkDQZ6AwvhS-0">
          <mxCell style="rounded=1;whiteSpace=wrap;html=1;labelBackgroundColor=none;fillColor=#8C8496;fontColor=#ffffff;align=center;arcSize=10;strokeColor=#736782;metaEdit=1;resizable=0;points=[[0.25,0,0],[0.5,0,0],[0.75,0,0],[1,0.25,0],[1,0.5,0],[1,0.75,0],[0.75,1,0],[0.5,1,0],[0.25,1,0],[0,0.75,0],[0,0.5,0],[0,0.25,0]];" parent="_sVSWJ4QDfecYqiopI3F-1" vertex="1">
            <mxGeometry x="520" y="280" width="240" height="120" as="geometry" />
          </mxCell>
        </object>
      </root>
    </mxGraphModel>
  </diagram>
  <diagram name="container_presenceSystem" id="zB507_wXkUttSpOTmu6l">
    <mxGraphModel dx="327" dy="582" grid="1" gridSize="10" guides="1" tooltips="1" connect="1" arrows="1" fold="1" page="1" pageScale="1" pageWidth="827" pageHeight="1169" math="0" shadow="0">
      <root>
        <mxCell id="kTZhpltcJjkScarYb4B0-0" />
        <mxCell id="kTZhpltcJjkScarYb4B0-1" parent="kTZhpltcJjkScarYb4B0-0" />
        <object placeholders="1" c4Name="User" c4Type="Person" c4Description="" label="&lt;font style=&quot;font-size: 16px&quot;&gt;&lt;b&gt;%c4Name%&lt;/b&gt;&lt;/font&gt;&lt;div&gt;[%c4Type%]&lt;/div&gt;&lt;br&gt;&lt;div&gt;&lt;font style=&quot;font-size: 11px&quot;&gt;&lt;font color=&quot;#cccccc&quot;&gt;%c4Description%&lt;/font&gt;&lt;/div&gt;" id="kTZhpltcJjkScarYb4B0-11">
          <mxCell style="html=1;fontSize=11;dashed=0;whiteSpace=wrap;fillColor=#083F75;strokeColor=#06315C;fontColor=#ffffff;shape=mxgraph.c4.person2;align=center;metaEdit=1;points=[[0.5,0,0],[1,0.5,0],[1,0.75,0],[0.75,1,0],[0.5,1,0],[0.25,1,0],[0,0.75,0],[0,0.5,0]];resizable=0;" parent="kTZhpltcJjkScarYb4B0-1" vertex="1">
            <mxGeometry x="940" y="250" width="200" height="180" as="geometry" />
          </mxCell>
        </object>
        <object placeholders="1" c4Type="Relationship" c4Description="authenticate" label="&lt;div style=&quot;text-align: left&quot;&gt;&lt;div style=&quot;text-align: center&quot;&gt;&lt;b&gt;%c4Description%&lt;/b&gt;&lt;/div&gt;" id="kTZhpltcJjkScarYb4B0-14">
          <mxCell style="endArrow=blockThin;html=1;fontSize=10;fontColor=#404040;strokeWidth=1;endFill=1;strokeColor=#828282;elbow=vertical;metaEdit=1;endSize=14;startSize=14;jumpStyle=arc;jumpSize=16;rounded=0;edgeStyle=orthogonalEdgeStyle;exitX=1;exitY=0.5;exitDx=0;exitDy=0;exitPerimeter=0;entryX=0;entryY=0.5;entryDx=0;entryDy=0;entryPerimeter=0;" parent="kTZhpltcJjkScarYb4B0-1" source="kTZhpltcJjkScarYb4B0-11" edge="1">
            <mxGeometry width="240" relative="1" as="geometry">
              <mxPoint x="1070" y="480" as="sourcePoint" />
              <mxPoint x="1360" y="340" as="targetPoint" />
              <mxPoint as="offset" />
            </mxGeometry>
          </mxCell>
        </object>
        <object placeholders="1" c4Type="Relationship" c4Description="uses" label="&lt;div style=&quot;text-align: left&quot;&gt;&lt;div style=&quot;text-align: center&quot;&gt;&lt;b&gt;%c4Description%&lt;/b&gt;&lt;/div&gt;" id="kTZhpltcJjkScarYb4B0-15">
          <mxCell style="endArrow=blockThin;html=1;fontSize=10;fontColor=#404040;strokeWidth=1;endFill=1;strokeColor=#828282;elbow=vertical;metaEdit=1;endSize=14;startSize=14;jumpStyle=arc;jumpSize=16;rounded=0;edgeStyle=orthogonalEdgeStyle;exitX=0.5;exitY=1;exitDx=0;exitDy=0;exitPerimeter=0;entryX=0.5;entryY=0;entryDx=0;entryDy=0;entryPerimeter=0;" parent="kTZhpltcJjkScarYb4B0-1" source="kTZhpltcJjkScarYb4B0-11" target="kTZhpltcJjkScarYb4B0-21" edge="1">
            <mxGeometry width="240" relative="1" as="geometry">
              <mxPoint x="1150" y="360" as="sourcePoint" />
              <mxPoint x="1040" y="560" as="targetPoint" />
              <mxPoint as="offset" />
            </mxGeometry>
          </mxCell>
        </object>
        <object placeholders="1" label="&lt;font style=&quot;font-size: 16px&quot;&gt;&lt;b&gt;&lt;div style=&quot;text-align: left&quot;&gt;%top%&lt;/div&gt;&lt;/b&gt;&lt;/font&gt;&lt;div style=&quot;text-align: left&quot;&gt;%bottom%&lt;/div&gt;" top="[Container] Presence System" bottom="" id="kTZhpltcJjkScarYb4B0-18">
          <mxCell style="rounded=1;fontSize=11;whiteSpace=wrap;html=1;dashed=1;arcSize=20;fillColor=none;strokeColor=#666666;fontColor=#333333;labelBackgroundColor=none;align=left;verticalAlign=bottom;labelBorderColor=none;spacingTop=0;spacing=10;dashPattern=8 4;metaEdit=1;rotatable=0;perimeter=rectanglePerimeter;noLabel=0;labelPadding=0;allowArrows=0;connectable=0;expand=0;recursiveResize=0;editable=1;pointerEvents=0;absoluteArcSize=1;points=[[0.25,0,0],[0.5,0,0],[0.75,0,0],[1,0.25,0],[1,0.5,0],[1,0.75,0],[0.75,1,0],[0.5,1,0],[0.25,1,0],[0,0.75,0],[0,0.5,0],[0,0.25,0]];" parent="kTZhpltcJjkScarYb4B0-1" vertex="1">
            <mxGeometry x="840" y="200" width="800" height="800" as="geometry" />
          </mxCell>
        </object>
        <object placeholders="1" label="&lt;font style=&quot;font-size: 16px&quot;&gt;&lt;b&gt;&lt;div style=&quot;text-align: left&quot;&gt;%top%&lt;/div&gt;&lt;/b&gt;&lt;/font&gt;&lt;div style=&quot;text-align: left&quot;&gt;%bottom%&lt;/div&gt;" top="Presence System" bottom="[Software System]" id="kTZhpltcJjkScarYb4B0-19">
          <mxCell style="rounded=1;fontSize=11;whiteSpace=wrap;html=1;dashed=1;arcSize=20;fillColor=none;strokeColor=#666666;fontColor=#333333;labelBackgroundColor=none;align=left;verticalAlign=bottom;labelBorderColor=none;spacingTop=0;spacing=10;dashPattern=8 4;metaEdit=1;rotatable=0;perimeter=rectanglePerimeter;noLabel=0;labelPadding=0;allowArrows=0;connectable=0;expand=0;recursiveResize=0;editable=1;pointerEvents=0;absoluteArcSize=1;points=[[0.25,0,0],[0.5,0,0],[0.75,0,0],[1,0.25,0],[1,0.5,0],[1,0.75,0],[0.75,1,0],[0.5,1,0],[0.25,1,0],[0,0.75,0],[0,0.5,0],[0,0.25,0]];" parent="kTZhpltcJjkScarYb4B0-1" vertex="1">
            <mxGeometry x="880" y="480" width="640" height="440" as="geometry" />
          </mxCell>
        </object>
        <object placeholders="1" c4Name="Presence Service" c4Type="Container" c4Technology="Spring" c4Description=" providing capabilities for managing presence, statuses, and group memberships." label="&lt;font style=&quot;font-size: 16px&quot;&gt;&lt;b&gt;%c4Name%&lt;/b&gt;&lt;/font&gt;&lt;div&gt;[%c4Type%: %c4Technology%]&lt;/div&gt;&lt;br&gt;&lt;div&gt;&lt;font style=&quot;font-size: 11px&quot;&gt;&lt;font color=&quot;#E6E6E6&quot;&gt;%c4Description%&lt;/font&gt;&lt;/div&gt;" id="kTZhpltcJjkScarYb4B0-21">
          <mxCell style="rounded=1;whiteSpace=wrap;html=1;fontSize=11;labelBackgroundColor=none;fillColor=#23A2D9;fontColor=#ffffff;align=center;arcSize=10;strokeColor=#0E7DAD;metaEdit=1;resizable=0;points=[[0.25,0,0],[0.5,0,0],[0.75,0,0],[1,0.25,0],[1,0.5,0],[1,0.75,0],[0.75,1,0],[0.5,1,0],[0.25,1,0],[0,0.75,0],[0,0.5,0],[0,0.25,0]];" parent="kTZhpltcJjkScarYb4B0-1" vertex="1">
            <mxGeometry x="920" y="520" width="240" height="120" as="geometry" />
          </mxCell>
        </object>
        <object placeholders="1" c4Type="Relationship" c4Description="take keys" label="&lt;div style=&quot;text-align: left&quot;&gt;&lt;div style=&quot;text-align: center&quot;&gt;&lt;b&gt;%c4Description%&lt;/b&gt;&lt;/div&gt;" id="kTZhpltcJjkScarYb4B0-24">
          <mxCell style="endArrow=blockThin;html=1;fontSize=10;fontColor=#404040;strokeWidth=1;endFill=1;strokeColor=#828282;elbow=vertical;metaEdit=1;endSize=14;startSize=14;jumpStyle=arc;jumpSize=16;rounded=0;edgeStyle=orthogonalEdgeStyle;exitX=1;exitY=0.5;exitDx=0;exitDy=0;exitPerimeter=0;entryX=0.75;entryY=1;entryDx=0;entryDy=0;entryPerimeter=0;" parent="kTZhpltcJjkScarYb4B0-1" source="kTZhpltcJjkScarYb4B0-21" edge="1">
            <mxGeometry width="240" relative="1" as="geometry">
              <mxPoint x="1540" y="560" as="sourcePoint" />
              <mxPoint x="1540" y="400" as="targetPoint" />
              <Array as="points">
                <mxPoint x="1540" y="580" />
              </Array>
              <mxPoint as="offset" />
            </mxGeometry>
          </mxCell>
        </object>
        <object placeholders="1" c4Name="Identity and AccessManagement (IAM)" c4Type="Software System" c4Description="" label="&lt;font style=&quot;font-size: 16px&quot;&gt;&lt;b&gt;%c4Name%&lt;/b&gt;&lt;/font&gt;&lt;div&gt;[%c4Type%]&lt;/div&gt;&lt;br&gt;&lt;div&gt;&lt;font style=&quot;font-size: 11px&quot;&gt;&lt;font color=&quot;#cccccc&quot;&gt;%c4Description%&lt;/font&gt;&lt;/div&gt;" id="uS4d2pWNDR24CSEb4kSI-0">
          <mxCell style="rounded=1;whiteSpace=wrap;html=1;labelBackgroundColor=none;fillColor=#8C8496;fontColor=#ffffff;align=center;arcSize=10;strokeColor=#736782;metaEdit=1;resizable=0;points=[[0.25,0,0],[0.5,0,0],[0.75,0,0],[1,0.25,0],[1,0.5,0],[1,0.75,0],[0.75,1,0],[0.5,1,0],[0.25,1,0],[0,0.75,0],[0,0.5,0],[0,0.25,0]];" parent="kTZhpltcJjkScarYb4B0-1" vertex="1">
            <mxGeometry x="1360" y="280" width="240" height="120" as="geometry" />
          </mxCell>
        </object>
        <object placeholders="1" c4Name="NoSQL database" c4Type="Container" c4Technology="MongoDB" c4Description="" label="&lt;font style=&quot;font-size: 16px&quot;&gt;&lt;b&gt;%c4Name%&lt;/b&gt;&lt;/font&gt;&lt;div&gt;[%c4Type%:&amp;nbsp;%c4Technology%]&lt;/div&gt;&lt;br&gt;&lt;div&gt;&lt;font style=&quot;font-size: 11px&quot;&gt;&lt;font color=&quot;#E6E6E6&quot;&gt;%c4Description%&lt;/font&gt;&lt;/div&gt;" id="pjl0WIC2sORHjR8JA4fF-8">
          <mxCell style="shape=cylinder3;size=15;whiteSpace=wrap;html=1;boundedLbl=1;rounded=0;labelBackgroundColor=none;fillColor=#23A2D9;fontSize=12;fontColor=#ffffff;align=center;strokeColor=#0E7DAD;metaEdit=1;points=[[0.5,0,0],[1,0.25,0],[1,0.5,0],[1,0.75,0],[0.5,1,0],[0,0.75,0],[0,0.5,0],[0,0.25,0]];resizable=0;" parent="kTZhpltcJjkScarYb4B0-1" vertex="1">
            <mxGeometry x="920" y="720" width="240" height="120" as="geometry" />
          </mxCell>
        </object>
        <object placeholders="1" c4Name="Broker" c4Type="Container" c4Technology="Apache Kafka" c4Description="" label="&lt;font style=&quot;font-size: 16px&quot;&gt;&lt;b&gt;%c4Name%&lt;/b&gt;&lt;/font&gt;&lt;div&gt;[%c4Type%:&amp;nbsp;%c4Technology%]&lt;/div&gt;&lt;br&gt;&lt;div&gt;&lt;font style=&quot;font-size: 11px&quot;&gt;&lt;font color=&quot;#E6E6E6&quot;&gt;%c4Description%&lt;/font&gt;&lt;/div&gt;" id="pjl0WIC2sORHjR8JA4fF-9">
          <mxCell style="shape=cylinder3;size=15;direction=south;whiteSpace=wrap;html=1;boundedLbl=1;rounded=0;labelBackgroundColor=none;fillColor=#23A2D9;fontSize=12;fontColor=#ffffff;align=center;strokeColor=#0E7DAD;metaEdit=1;points=[[0.5,0,0],[1,0.25,0],[1,0.5,0],[1,0.75,0],[0.5,1,0],[0,0.75,0],[0,0.5,0],[0,0.25,0]];resizable=0;" parent="kTZhpltcJjkScarYb4B0-1" vertex="1">
            <mxGeometry x="1241" y="720" width="240" height="120" as="geometry" />
          </mxCell>
        </object>
        <mxCell id="pjl0WIC2sORHjR8JA4fF-10" style="edgeStyle=orthogonalEdgeStyle;rounded=0;orthogonalLoop=1;jettySize=auto;html=1;entryX=0.5;entryY=0;entryDx=0;entryDy=0;entryPerimeter=0;" parent="kTZhpltcJjkScarYb4B0-1" source="kTZhpltcJjkScarYb4B0-21" target="pjl0WIC2sORHjR8JA4fF-8" edge="1">
          <mxGeometry relative="1" as="geometry" />
        </mxCell>
        <mxCell id="pjl0WIC2sORHjR8JA4fF-11" value="read/write" style="edgeLabel;html=1;align=center;verticalAlign=middle;resizable=0;points=[];" parent="pjl0WIC2sORHjR8JA4fF-10" vertex="1" connectable="0">
          <mxGeometry x="-0.0309" relative="1" as="geometry">
            <mxPoint as="offset" />
          </mxGeometry>
        </mxCell>
        <mxCell id="pjl0WIC2sORHjR8JA4fF-13" style="edgeStyle=orthogonalEdgeStyle;rounded=0;orthogonalLoop=1;jettySize=auto;html=1;exitX=0.75;exitY=1;exitDx=0;exitDy=0;exitPerimeter=0;entryX=0;entryY=0.5;entryDx=0;entryDy=0;entryPerimeter=0;" parent="kTZhpltcJjkScarYb4B0-1" source="kTZhpltcJjkScarYb4B0-21" target="pjl0WIC2sORHjR8JA4fF-9" edge="1">
          <mxGeometry relative="1" as="geometry" />
        </mxCell>
        <mxCell id="pjl0WIC2sORHjR8JA4fF-14" value="Sending/Receiving Messages" style="edgeLabel;html=1;align=center;verticalAlign=middle;resizable=0;points=[];" parent="pjl0WIC2sORHjR8JA4fF-13" vertex="1" connectable="0">
          <mxGeometry x="0.1825" y="-3" relative="1" as="geometry">
            <mxPoint as="offset" />
          </mxGeometry>
        </mxCell>
      </root>
    </mxGraphModel>
  </diagram>
  <diagram name="component_presenceSystem_presence" id="mL9jMwiOwkznk3D4Ux2N">
    <mxGraphModel dx="2501" dy="844" grid="1" gridSize="10" guides="1" tooltips="1" connect="1" arrows="1" fold="1" page="1" pageScale="1" pageWidth="827" pageHeight="1169" math="0" shadow="0">
      <root>
        <mxCell id="BX2joiUE_Fl3DRpkrzmP-0" />
        <mxCell id="BX2joiUE_Fl3DRpkrzmP-1" parent="BX2joiUE_Fl3DRpkrzmP-0" />
        <object placeholders="1" c4Name="User" c4Type="Person" c4Description="" label="&lt;font style=&quot;font-size: 16px&quot;&gt;&lt;b&gt;%c4Name%&lt;/b&gt;&lt;/font&gt;&lt;div&gt;[%c4Type%]&lt;/div&gt;&lt;br&gt;&lt;div&gt;&lt;font style=&quot;font-size: 11px&quot;&gt;&lt;font color=&quot;#cccccc&quot;&gt;%c4Description%&lt;/font&gt;&lt;/div&gt;" id="6oxGUcotTHgbZWISp_Xx-0">
          <mxCell style="html=1;fontSize=11;dashed=0;whiteSpace=wrap;fillColor=#083F75;strokeColor=#06315C;fontColor=#ffffff;shape=mxgraph.c4.person2;align=center;metaEdit=1;points=[[0.5,0,0],[1,0.5,0],[1,0.75,0],[0.75,1,0],[0.5,1,0],[0.25,1,0],[0,0.75,0],[0,0.5,0]];resizable=0;" parent="BX2joiUE_Fl3DRpkrzmP-1" vertex="1">
            <mxGeometry x="-290" y="800" width="200" height="180" as="geometry" />
          </mxCell>
        </object>
        <object placeholders="1" c4Type="Relationship" c4Description="authenticate" label="&lt;div style=&quot;text-align: left&quot;&gt;&lt;div style=&quot;text-align: center&quot;&gt;&lt;b&gt;%c4Description%&lt;/b&gt;&lt;/div&gt;" id="6oxGUcotTHgbZWISp_Xx-1">
          <mxCell style="endArrow=blockThin;html=1;fontSize=10;fontColor=#404040;strokeWidth=1;endFill=1;strokeColor=#828282;elbow=vertical;metaEdit=1;endSize=14;startSize=14;jumpStyle=arc;jumpSize=16;rounded=0;edgeStyle=orthogonalEdgeStyle;exitX=0.5;exitY=0;exitDx=0;exitDy=0;exitPerimeter=0;entryX=0;entryY=0.5;entryDx=0;entryDy=0;entryPerimeter=0;" parent="BX2joiUE_Fl3DRpkrzmP-1" source="6oxGUcotTHgbZWISp_Xx-0" edge="1">
            <mxGeometry width="240" relative="1" as="geometry">
              <mxPoint x="230" y="800" as="sourcePoint" />
              <mxPoint x="520" y="660" as="targetPoint" />
              <mxPoint as="offset" />
              <Array as="points">
                <mxPoint x="-190" y="660" />
              </Array>
            </mxGeometry>
          </mxCell>
        </object>
        <object placeholders="1" c4Type="Relationship" c4Description="subscribe" label="&lt;div style=&quot;text-align: left&quot;&gt;&lt;div style=&quot;text-align: center&quot;&gt;&lt;b&gt;%c4Description%&lt;/b&gt;&lt;/div&gt;" id="6oxGUcotTHgbZWISp_Xx-2">
          <mxCell style="endArrow=blockThin;html=1;fontSize=10;fontColor=#404040;strokeWidth=1;endFill=1;strokeColor=#828282;elbow=vertical;metaEdit=1;endSize=14;startSize=14;jumpStyle=arc;jumpSize=16;rounded=0;edgeStyle=orthogonalEdgeStyle;exitX=0.5;exitY=1;exitDx=0;exitDy=0;exitPerimeter=0;entryX=0;entryY=0.5;entryDx=0;entryDy=0;entryPerimeter=0;" parent="BX2joiUE_Fl3DRpkrzmP-1" source="6oxGUcotTHgbZWISp_Xx-0" edge="1" target="VJrcVXa-v0Sadw7MhvxR-0">
            <mxGeometry width="240" relative="1" as="geometry">
              <mxPoint x="310" y="680" as="sourcePoint" />
              <mxPoint x="200" y="800" as="targetPoint" />
              <mxPoint as="offset" />
            </mxGeometry>
          </mxCell>
        </object>
        <object placeholders="1" label="&lt;font style=&quot;font-size: 16px&quot;&gt;&lt;b&gt;&lt;div style=&quot;text-align: left&quot;&gt;%top%&lt;/div&gt;&lt;/b&gt;&lt;/font&gt;&lt;div style=&quot;text-align: left&quot;&gt;%bottom%&lt;/div&gt;" top="[Component] Presence Service" bottom="" id="6oxGUcotTHgbZWISp_Xx-3">
          <mxCell style="rounded=1;fontSize=11;whiteSpace=wrap;html=1;dashed=1;arcSize=20;fillColor=none;strokeColor=#666666;fontColor=#333333;labelBackgroundColor=none;align=left;verticalAlign=bottom;labelBorderColor=none;spacingTop=0;spacing=10;dashPattern=8 4;metaEdit=1;rotatable=0;perimeter=rectanglePerimeter;noLabel=0;labelPadding=0;allowArrows=0;connectable=0;expand=0;recursiveResize=0;editable=1;pointerEvents=0;absoluteArcSize=1;points=[[0.25,0,0],[0.5,0,0],[0.75,0,0],[1,0.25,0],[1,0.5,0],[1,0.75,0],[0.75,1,0],[0.5,1,0],[0.25,1,0],[0,0.75,0],[0,0.5,0],[0,0.25,0]];" parent="BX2joiUE_Fl3DRpkrzmP-1" vertex="1">
            <mxGeometry x="-360" y="520" width="1160" height="1080" as="geometry" />
          </mxCell>
        </object>
        <object placeholders="1" label="&lt;font style=&quot;font-size: 16px&quot;&gt;&lt;b&gt;&lt;div style=&quot;text-align: left&quot;&gt;%top%&lt;/div&gt;&lt;/b&gt;&lt;/font&gt;&lt;div style=&quot;text-align: left&quot;&gt;%bottom%&lt;/div&gt;" top="Presence Service" bottom="[Container]" id="6oxGUcotTHgbZWISp_Xx-4">
          <mxCell style="rounded=1;fontSize=11;whiteSpace=wrap;html=1;dashed=1;arcSize=20;fillColor=none;strokeColor=#666666;fontColor=#333333;labelBackgroundColor=none;align=left;verticalAlign=bottom;labelBorderColor=none;spacingTop=0;spacing=10;dashPattern=8 4;metaEdit=1;rotatable=0;perimeter=rectanglePerimeter;noLabel=0;labelPadding=0;allowArrows=0;connectable=0;expand=0;recursiveResize=0;editable=1;pointerEvents=0;absoluteArcSize=1;points=[[0.25,0,0],[0.5,0,0],[0.75,0,0],[1,0.25,0],[1,0.5,0],[1,0.75,0],[0.75,1,0],[0.5,1,0],[0.25,1,0],[0,0.75,0],[0,0.5,0],[0,0.25,0]];" parent="BX2joiUE_Fl3DRpkrzmP-1" vertex="1">
            <mxGeometry x="40" y="800" width="320" height="760" as="geometry" />
          </mxCell>
        </object>
        <object placeholders="1" c4Type="Relationship" c4Description="take keys" label="&lt;div style=&quot;text-align: left&quot;&gt;&lt;div style=&quot;text-align: center&quot;&gt;&lt;b&gt;%c4Description%&lt;/b&gt;&lt;/div&gt;" id="6oxGUcotTHgbZWISp_Xx-6">
          <mxCell style="endArrow=blockThin;html=1;fontSize=10;fontColor=#404040;strokeWidth=1;endFill=1;strokeColor=#828282;elbow=vertical;metaEdit=1;endSize=14;startSize=14;jumpStyle=arc;jumpSize=16;rounded=0;edgeStyle=orthogonalEdgeStyle;entryX=0.5;entryY=1;entryDx=0;entryDy=0;entryPerimeter=0;" parent="BX2joiUE_Fl3DRpkrzmP-1" target="6oxGUcotTHgbZWISp_Xx-7" edge="1">
            <mxGeometry width="240" relative="1" as="geometry">
              <mxPoint x="360" y="840" as="sourcePoint" />
              <mxPoint x="700" y="720" as="targetPoint" />
              <Array as="points">
                <mxPoint x="400" y="840" />
                <mxPoint x="400" y="770" />
                <mxPoint x="640" y="770" />
              </Array>
              <mxPoint as="offset" />
            </mxGeometry>
          </mxCell>
        </object>
        <object placeholders="1" c4Name="Identity and AccessManagement (IAM)" c4Type="Software System" c4Description="" label="&lt;font style=&quot;font-size: 16px&quot;&gt;&lt;b&gt;%c4Name%&lt;/b&gt;&lt;/font&gt;&lt;div&gt;[%c4Type%]&lt;/div&gt;&lt;br&gt;&lt;div&gt;&lt;font style=&quot;font-size: 11px&quot;&gt;&lt;font color=&quot;#cccccc&quot;&gt;%c4Description%&lt;/font&gt;&lt;/div&gt;" id="6oxGUcotTHgbZWISp_Xx-7">
          <mxCell style="rounded=1;whiteSpace=wrap;html=1;labelBackgroundColor=none;fillColor=#8C8496;fontColor=#ffffff;align=center;arcSize=10;strokeColor=#736782;metaEdit=1;resizable=0;points=[[0.25,0,0],[0.5,0,0],[0.75,0,0],[1,0.25,0],[1,0.5,0],[1,0.75,0],[0.75,1,0],[0.5,1,0],[0.25,1,0],[0,0.75,0],[0,0.5,0],[0,0.25,0]];" parent="BX2joiUE_Fl3DRpkrzmP-1" vertex="1">
            <mxGeometry x="520" y="600" width="240" height="120" as="geometry" />
          </mxCell>
        </object>
        <object placeholders="1" c4Name="NoSQL database" c4Type="Container" c4Technology="MongoDB" c4Description="" label="&lt;font style=&quot;font-size: 16px&quot;&gt;&lt;b&gt;%c4Name%&lt;/b&gt;&lt;/font&gt;&lt;div&gt;[%c4Type%:&amp;nbsp;%c4Technology%]&lt;/div&gt;&lt;br&gt;&lt;div&gt;&lt;font style=&quot;font-size: 11px&quot;&gt;&lt;font color=&quot;#E6E6E6&quot;&gt;%c4Description%&lt;/font&gt;&lt;/div&gt;" id="6oxGUcotTHgbZWISp_Xx-8">
          <mxCell style="shape=cylinder3;size=15;whiteSpace=wrap;html=1;boundedLbl=1;rounded=0;labelBackgroundColor=none;fillColor=#23A2D9;fontSize=12;fontColor=#ffffff;align=center;strokeColor=#0E7DAD;metaEdit=1;points=[[0.5,0,0],[1,0.25,0],[1,0.5,0],[1,0.75,0],[0.5,1,0],[0,0.75,0],[0,0.5,0],[0,0.25,0]];resizable=0;" parent="BX2joiUE_Fl3DRpkrzmP-1" vertex="1">
            <mxGeometry x="500" y="1360" width="240" height="120" as="geometry" />
          </mxCell>
        </object>
        <object placeholders="1" c4Name="Broker" c4Type="Container" c4Technology="Apache Kafka" c4Description="" label="&lt;font style=&quot;font-size: 16px&quot;&gt;&lt;b&gt;%c4Name%&lt;/b&gt;&lt;/font&gt;&lt;div&gt;[%c4Type%:&amp;nbsp;%c4Technology%]&lt;/div&gt;&lt;br&gt;&lt;div&gt;&lt;font style=&quot;font-size: 11px&quot;&gt;&lt;font color=&quot;#E6E6E6&quot;&gt;%c4Description%&lt;/font&gt;&lt;/div&gt;" id="6oxGUcotTHgbZWISp_Xx-9">
          <mxCell style="shape=cylinder3;size=15;direction=south;whiteSpace=wrap;html=1;boundedLbl=1;rounded=0;labelBackgroundColor=none;fillColor=#23A2D9;fontSize=12;fontColor=#ffffff;align=center;strokeColor=#0E7DAD;metaEdit=1;points=[[0.5,0,0],[1,0.25,0],[1,0.5,0],[1,0.75,0],[0.5,1,0],[0,0.75,0],[0,0.5,0],[0,0.25,0]];resizable=0;" parent="BX2joiUE_Fl3DRpkrzmP-1" vertex="1">
            <mxGeometry x="480" y="1000" width="240" height="120" as="geometry" />
          </mxCell>
        </object>
        <mxCell id="6oxGUcotTHgbZWISp_Xx-10" style="edgeStyle=orthogonalEdgeStyle;rounded=0;orthogonalLoop=1;jettySize=auto;html=1;entryX=0;entryY=0.5;entryDx=0;entryDy=0;entryPerimeter=0;" parent="BX2joiUE_Fl3DRpkrzmP-1" target="6oxGUcotTHgbZWISp_Xx-8" edge="1">
          <mxGeometry relative="1" as="geometry">
            <mxPoint x="360" y="1420" as="sourcePoint" />
            <Array as="points">
              <mxPoint x="360" y="1420" />
            </Array>
          </mxGeometry>
        </mxCell>
        <mxCell id="6oxGUcotTHgbZWISp_Xx-11" value="read/write" style="edgeLabel;html=1;align=center;verticalAlign=middle;resizable=0;points=[];" parent="6oxGUcotTHgbZWISp_Xx-10" vertex="1" connectable="0">
          <mxGeometry x="-0.0309" relative="1" as="geometry">
            <mxPoint x="22" y="-10" as="offset" />
          </mxGeometry>
        </mxCell>
        <object placeholders="1" c4Name="Presence" c4Type="Component" c4Technology="" c4Description="receives hearbeats, storage presence" label="&lt;font style=&quot;font-size: 16px&quot;&gt;&lt;b&gt;%c4Name%&lt;/b&gt;&lt;/font&gt;&lt;div&gt;[%c4Type%: %c4Technology%]&lt;/div&gt;&lt;br&gt;&lt;div&gt;&lt;font style=&quot;font-size: 11px&quot;&gt;%c4Description%&lt;/font&gt;&lt;/div&gt;" id="6oxGUcotTHgbZWISp_Xx-14">
          <mxCell style="rounded=1;whiteSpace=wrap;html=1;labelBackgroundColor=none;fillColor=#63BEF2;fontColor=#ffffff;align=center;arcSize=6;strokeColor=#2086C9;metaEdit=1;resizable=0;points=[[0.25,0,0],[0.5,0,0],[0.75,0,0],[1,0.25,0],[1,0.5,0],[1,0.75,0],[0.75,1,0],[0.5,1,0],[0.25,1,0],[0,0.75,0],[0,0.5,0],[0,0.25,0]];" parent="BX2joiUE_Fl3DRpkrzmP-1" vertex="1">
            <mxGeometry x="80" y="840" width="240" height="120" as="geometry" />
          </mxCell>
        </object>
        <object placeholders="1" c4Name="Group" c4Type="Component" c4Technology="" c4Description="manages groups and their memberships" label="&lt;font style=&quot;font-size: 16px&quot;&gt;&lt;b&gt;%c4Name%&lt;/b&gt;&lt;/font&gt;&lt;div&gt;[%c4Type%: %c4Technology%]&lt;/div&gt;&lt;br&gt;&lt;div&gt;&lt;font style=&quot;font-size: 11px&quot;&gt;%c4Description%&lt;/font&gt;&lt;/div&gt;" id="3Fz94s7PP4_9Xg1Jn0A_-0">
          <mxCell style="rounded=1;whiteSpace=wrap;html=1;labelBackgroundColor=none;fillColor=#63BEF2;fontColor=#ffffff;align=center;arcSize=6;strokeColor=#2086C9;metaEdit=1;resizable=0;points=[[0.25,0,0],[0.5,0,0],[0.75,0,0],[1,0.25,0],[1,0.5,0],[1,0.75,0],[0.75,1,0],[0.5,1,0],[0.25,1,0],[0,0.75,0],[0,0.5,0],[0,0.25,0]];" parent="BX2joiUE_Fl3DRpkrzmP-1" vertex="1">
            <mxGeometry x="80" y="1160" width="240" height="120" as="geometry" />
          </mxCell>
        </object>
        <object placeholders="1" c4Name="Status" c4Type="Component" c4Technology="" c4Description="allows users to set statutes" label="&lt;font style=&quot;font-size: 16px&quot;&gt;&lt;b&gt;%c4Name%&lt;/b&gt;&lt;/font&gt;&lt;div&gt;[%c4Type%: %c4Technology%]&lt;/div&gt;&lt;br&gt;&lt;div&gt;&lt;font style=&quot;font-size: 11px&quot;&gt;%c4Description%&lt;/font&gt;&lt;/div&gt;" id="3Fz94s7PP4_9Xg1Jn0A_-1">
          <mxCell style="rounded=1;whiteSpace=wrap;html=1;labelBackgroundColor=none;fillColor=#63BEF2;fontColor=#ffffff;align=center;arcSize=6;strokeColor=#2086C9;metaEdit=1;resizable=0;points=[[0.25,0,0],[0.5,0,0],[0.75,0,0],[1,0.25,0],[1,0.5,0],[1,0.75,0],[0.75,1,0],[0.5,1,0],[0.25,1,0],[0,0.75,0],[0,0.5,0],[0,0.25,0]];" parent="BX2joiUE_Fl3DRpkrzmP-1" vertex="1">
            <mxGeometry x="80" y="1000" width="240" height="120" as="geometry" />
          </mxCell>
        </object>
        <mxCell id="3Fz94s7PP4_9Xg1Jn0A_-6" style="edgeStyle=orthogonalEdgeStyle;rounded=0;orthogonalLoop=1;jettySize=auto;html=1;entryX=0.197;entryY=0.985;entryDx=0;entryDy=0;entryPerimeter=0;exitX=1;exitY=0.5;exitDx=0;exitDy=0;exitPerimeter=0;" parent="BX2joiUE_Fl3DRpkrzmP-1" edge="1" target="6oxGUcotTHgbZWISp_Xx-9" source="6oxGUcotTHgbZWISp_Xx-14">
          <mxGeometry relative="1" as="geometry">
            <mxPoint x="360" y="1059.5" as="sourcePoint" />
            <mxPoint x="480" y="1059.5" as="targetPoint" />
            <Array as="points">
              <mxPoint x="440" y="900" />
              <mxPoint x="440" y="1024" />
            </Array>
          </mxGeometry>
        </mxCell>
        <object placeholders="1" c4Name="Real-time publisher" c4Type="Component" c4Technology="" c4Description="allows clients to connect via Server-Sent Events, enables clients to subscribe " label="&lt;font style=&quot;font-size: 16px&quot;&gt;&lt;b&gt;%c4Name%&lt;/b&gt;&lt;/font&gt;&lt;div&gt;[%c4Type%: %c4Technology%]&lt;/div&gt;&lt;br&gt;&lt;div&gt;&lt;font style=&quot;font-size: 11px&quot;&gt;%c4Description%&lt;/font&gt;&lt;/div&gt;" id="VJrcVXa-v0Sadw7MhvxR-0">
          <mxCell style="rounded=1;whiteSpace=wrap;html=1;labelBackgroundColor=none;fillColor=#63BEF2;fontColor=#ffffff;align=center;arcSize=6;strokeColor=#2086C9;metaEdit=1;resizable=0;points=[[0.25,0,0],[0.5,0,0],[0.75,0,0],[1,0.25,0],[1,0.5,0],[1,0.75,0],[0.75,1,0],[0.5,1,0],[0.25,1,0],[0,0.75,0],[0,0.5,0],[0,0.25,0]];" vertex="1" parent="BX2joiUE_Fl3DRpkrzmP-1">
            <mxGeometry x="80" y="1360" width="240" height="120" as="geometry" />
          </mxCell>
        </object>
        <mxCell id="VJrcVXa-v0Sadw7MhvxR-1" style="edgeStyle=orthogonalEdgeStyle;rounded=0;orthogonalLoop=1;jettySize=auto;html=1;entryX=0.197;entryY=0.992;entryDx=0;entryDy=0;entryPerimeter=0;exitX=1;exitY=0.5;exitDx=0;exitDy=0;exitPerimeter=0;" edge="1" parent="BX2joiUE_Fl3DRpkrzmP-1" source="3Fz94s7PP4_9Xg1Jn0A_-1" target="6oxGUcotTHgbZWISp_Xx-9">
          <mxGeometry relative="1" as="geometry">
            <mxPoint x="330" y="910" as="sourcePoint" />
            <mxPoint x="490" y="1069.5" as="targetPoint" />
            <Array as="points">
              <mxPoint x="440" y="1060" />
              <mxPoint x="440" y="1024" />
              <mxPoint x="482" y="1024" />
            </Array>
          </mxGeometry>
        </mxCell>
        <mxCell id="VJrcVXa-v0Sadw7MhvxR-2" style="edgeStyle=orthogonalEdgeStyle;rounded=0;orthogonalLoop=1;jettySize=auto;html=1;entryX=1.004;entryY=0.558;entryDx=0;entryDy=0;entryPerimeter=0;" edge="1" parent="BX2joiUE_Fl3DRpkrzmP-1" source="6oxGUcotTHgbZWISp_Xx-9" target="3Fz94s7PP4_9Xg1Jn0A_-0">
          <mxGeometry relative="1" as="geometry">
            <Array as="points">
              <mxPoint x="450" y="1070" />
              <mxPoint x="450" y="1227" />
            </Array>
          </mxGeometry>
        </mxCell>
        <mxCell id="VJrcVXa-v0Sadw7MhvxR-3" style="edgeStyle=orthogonalEdgeStyle;rounded=0;orthogonalLoop=1;jettySize=auto;html=1;entryX=0.5;entryY=0;entryDx=0;entryDy=0;entryPerimeter=0;" edge="1" parent="BX2joiUE_Fl3DRpkrzmP-1" source="3Fz94s7PP4_9Xg1Jn0A_-0" target="VJrcVXa-v0Sadw7MhvxR-0">
          <mxGeometry relative="1" as="geometry" />
        </mxCell>
        <mxCell id="VJrcVXa-v0Sadw7MhvxR-4" value="requet to send events" style="edgeLabel;html=1;align=center;verticalAlign=middle;resizable=0;points=[];" vertex="1" connectable="0" parent="VJrcVXa-v0Sadw7MhvxR-3">
          <mxGeometry x="-0.2569" relative="1" as="geometry">
            <mxPoint as="offset" />
          </mxGeometry>
        </mxCell>
        <mxCell id="VJrcVXa-v0Sadw7MhvxR-5" style="edgeStyle=orthogonalEdgeStyle;rounded=0;orthogonalLoop=1;jettySize=auto;html=1;entryX=0.197;entryY=1.001;entryDx=0;entryDy=0;entryPerimeter=0;exitX=1;exitY=0.25;exitDx=0;exitDy=0;exitPerimeter=0;" edge="1" parent="BX2joiUE_Fl3DRpkrzmP-1" source="3Fz94s7PP4_9Xg1Jn0A_-0" target="6oxGUcotTHgbZWISp_Xx-9">
          <mxGeometry relative="1" as="geometry">
            <Array as="points">
              <mxPoint x="440" y="1190" />
              <mxPoint x="440" y="1024" />
            </Array>
          </mxGeometry>
        </mxCell>
        <mxCell id="VJrcVXa-v0Sadw7MhvxR-6" style="edgeStyle=orthogonalEdgeStyle;rounded=0;orthogonalLoop=1;jettySize=auto;html=1;entryX=0;entryY=0.5;entryDx=0;entryDy=0;entryPerimeter=0;" edge="1" parent="BX2joiUE_Fl3DRpkrzmP-1" source="6oxGUcotTHgbZWISp_Xx-0" target="6oxGUcotTHgbZWISp_Xx-14">
          <mxGeometry relative="1" as="geometry" />
        </mxCell>
        <mxCell id="VJrcVXa-v0Sadw7MhvxR-7" value="send hearbeats" style="edgeLabel;html=1;align=center;verticalAlign=middle;resizable=0;points=[];" vertex="1" connectable="0" parent="VJrcVXa-v0Sadw7MhvxR-6">
          <mxGeometry x="-0.4643" y="-1" relative="1" as="geometry">
            <mxPoint as="offset" />
          </mxGeometry>
        </mxCell>
        <mxCell id="VJrcVXa-v0Sadw7MhvxR-8" style="edgeStyle=orthogonalEdgeStyle;rounded=0;orthogonalLoop=1;jettySize=auto;html=1;entryX=0.75;entryY=1;entryDx=0;entryDy=0;entryPerimeter=0;" edge="1" parent="BX2joiUE_Fl3DRpkrzmP-1" source="VJrcVXa-v0Sadw7MhvxR-0" target="6oxGUcotTHgbZWISp_Xx-0">
          <mxGeometry relative="1" as="geometry">
            <Array as="points">
              <mxPoint x="-140" y="1380" />
            </Array>
          </mxGeometry>
        </mxCell>
        <mxCell id="VJrcVXa-v0Sadw7MhvxR-9" value="events&lt;div&gt;[SSE]&lt;/div&gt;" style="edgeLabel;html=1;align=center;verticalAlign=middle;resizable=0;points=[];" vertex="1" connectable="0" parent="VJrcVXa-v0Sadw7MhvxR-8">
          <mxGeometry x="-0.5259" y="3" relative="1" as="geometry">
            <mxPoint as="offset" />
          </mxGeometry>
        </mxCell>
        <mxCell id="Esu2IDWKBZ4gqYfUpU6m-0" style="edgeStyle=orthogonalEdgeStyle;rounded=0;orthogonalLoop=1;jettySize=auto;html=1;exitX=1;exitY=0.75;exitDx=0;exitDy=0;exitPerimeter=0;entryX=0;entryY=0.5;entryDx=0;entryDy=0;entryPerimeter=0;" edge="1" parent="BX2joiUE_Fl3DRpkrzmP-1" source="6oxGUcotTHgbZWISp_Xx-0" target="3Fz94s7PP4_9Xg1Jn0A_-1">
          <mxGeometry relative="1" as="geometry" />
        </mxCell>
        <mxCell id="Esu2IDWKBZ4gqYfUpU6m-1" value="set status" style="edgeLabel;html=1;align=center;verticalAlign=middle;resizable=0;points=[];" vertex="1" connectable="0" parent="Esu2IDWKBZ4gqYfUpU6m-0">
          <mxGeometry x="-0.139" y="-1" relative="1" as="geometry">
            <mxPoint as="offset" />
          </mxGeometry>
        </mxCell>
      </root>
    </mxGraphModel>
  </diagram>
  <diagram id="5-QEKw0O_m5Dh-QAgMf1" name="deployment_development_presenceSystem">
    <mxGraphModel dx="847" dy="2013" grid="1" gridSize="10" guides="1" tooltips="1" connect="1" arrows="1" fold="1" page="1" pageScale="1" pageWidth="827" pageHeight="1169" math="0" shadow="0">
      <root>
        <mxCell id="0" />
        <mxCell id="1" parent="0" />
        <object placeholders="1" label="&lt;font style=&quot;font-size: 16px&quot;&gt;&lt;b&gt;&lt;div style=&quot;text-align: left&quot;&gt;%top%&lt;/div&gt;&lt;/b&gt;&lt;/font&gt;&lt;div style=&quot;text-align: left&quot;&gt;%bottom%&lt;/div&gt;" top="[Deployment] Presence System - development" bottom="" id="c-NDOjgKE_WrYrarA_SW-7">
          <mxCell style="rounded=1;fontSize=11;whiteSpace=wrap;html=1;dashed=1;arcSize=20;fillColor=none;strokeColor=#666666;fontColor=#333333;labelBackgroundColor=none;align=left;verticalAlign=bottom;labelBorderColor=none;spacingTop=0;spacing=10;dashPattern=8 4;metaEdit=1;rotatable=0;perimeter=rectanglePerimeter;noLabel=0;labelPadding=0;allowArrows=0;connectable=0;expand=0;recursiveResize=0;editable=1;pointerEvents=0;absoluteArcSize=1;points=[[0.25,0,0],[0.5,0,0],[0.75,0,0],[1,0.25,0],[1,0.5,0],[1,0.75,0],[0.75,1,0],[0.5,1,0],[0.25,1,0],[0,0.75,0],[0,0.5,0],[0,0.25,0]];" parent="1" vertex="1">
            <mxGeometry x="840" y="-1160" width="960" height="640" as="geometry" />
          </mxCell>
        </object>
        <object placeholders="1" c4Name="Identity and AccessManagement (IAM)" c4Type="Software System" c4Description="" label="&lt;font style=&quot;font-size: 16px&quot;&gt;&lt;b&gt;%c4Name%&lt;/b&gt;&lt;/font&gt;&lt;div&gt;[%c4Type%]&lt;/div&gt;&lt;br&gt;&lt;div&gt;&lt;font style=&quot;font-size: 11px&quot;&gt;&lt;font color=&quot;#cccccc&quot;&gt;%c4Description%&lt;/font&gt;&lt;/div&gt;" id="c-NDOjgKE_WrYrarA_SW-13">
          <mxCell style="rounded=1;whiteSpace=wrap;html=1;labelBackgroundColor=none;fillColor=#8C8496;fontColor=#ffffff;align=center;arcSize=10;strokeColor=#736782;metaEdit=1;resizable=0;points=[[0.25,0,0],[0.5,0,0],[0.75,0,0],[1,0.25,0],[1,0.5,0],[1,0.75,0],[0.75,1,0],[0.5,1,0],[0.25,1,0],[0,0.75,0],[0,0.5,0],[0,0.25,0]];" parent="1" vertex="1">
            <mxGeometry x="1440" y="-1080" width="240" height="120" as="geometry" />
          </mxCell>
        </object>
        <object placeholders="1" label="&lt;font style=&quot;font-size: 16px&quot;&gt;&lt;b&gt;&lt;div style=&quot;text-align: left&quot;&gt;%top%&lt;/div&gt;&lt;/b&gt;&lt;/font&gt;&lt;div style=&quot;text-align: left&quot;&gt;%bottom%&lt;/div&gt;" top="Developer&#39;s Computer" bottom="[Deployment Node: Ubuntu 24.04]" id="c-NDOjgKE_WrYrarA_SW-14">
          <mxCell style="rounded=1;fontSize=11;whiteSpace=wrap;html=1;dashed=1;arcSize=20;fillColor=none;strokeColor=#666666;fontColor=#333333;labelBackgroundColor=none;align=left;verticalAlign=bottom;labelBorderColor=none;spacingTop=0;spacing=10;dashPattern=8 4;metaEdit=1;rotatable=0;perimeter=rectanglePerimeter;noLabel=0;labelPadding=0;allowArrows=0;connectable=0;expand=0;recursiveResize=0;editable=1;pointerEvents=0;absoluteArcSize=1;points=[[0.25,0,0],[0.5,0,0],[0.75,0,0],[1,0.25,0],[1,0.5,0],[1,0.75,0],[0.75,1,0],[0.5,1,0],[0.25,1,0],[0,0.75,0],[0,0.5,0],[0,0.25,0]];" parent="1" vertex="1">
            <mxGeometry x="880" y="-1120" width="400" height="290" as="geometry" />
          </mxCell>
        </object>
        <object placeholders="1" label="&lt;font style=&quot;font-size: 16px&quot;&gt;&lt;b&gt;&lt;div style=&quot;text-align: left&quot;&gt;%top%&lt;/div&gt;&lt;/b&gt;&lt;/font&gt;&lt;div style=&quot;text-align: left&quot;&gt;%bottom%&lt;/div&gt;" top="Docker" bottom="[Deployment Node]" id="c-NDOjgKE_WrYrarA_SW-15">
          <mxCell style="rounded=1;fontSize=11;whiteSpace=wrap;html=1;dashed=1;arcSize=20;fillColor=none;strokeColor=#666666;fontColor=#333333;labelBackgroundColor=none;align=left;verticalAlign=bottom;labelBorderColor=none;spacingTop=0;spacing=10;dashPattern=8 4;metaEdit=1;rotatable=0;perimeter=rectanglePerimeter;noLabel=0;labelPadding=0;allowArrows=0;connectable=0;expand=0;recursiveResize=0;editable=1;pointerEvents=0;absoluteArcSize=1;points=[[0.25,0,0],[0.5,0,0],[0.75,0,0],[1,0.25,0],[1,0.5,0],[1,0.75,0],[0.75,1,0],[0.5,1,0],[0.25,1,0],[0,0.75,0],[0,0.5,0],[0,0.25,0]];" parent="1" vertex="1">
            <mxGeometry x="1360" y="-1120" width="400" height="560" as="geometry" />
          </mxCell>
        </object>
        <object placeholders="1" c4Type="Relationship" c4Description="take keys" label="&lt;div style=&quot;text-align: left&quot;&gt;&lt;div style=&quot;text-align: center&quot;&gt;&lt;b&gt;%c4Description%&lt;/b&gt;&lt;/div&gt;" id="c-NDOjgKE_WrYrarA_SW-16">
          <mxCell style="endArrow=blockThin;html=1;fontSize=10;fontColor=#404040;strokeWidth=1;endFill=1;strokeColor=#828282;elbow=vertical;metaEdit=1;endSize=14;startSize=14;jumpStyle=arc;jumpSize=16;rounded=0;edgeStyle=orthogonalEdgeStyle;exitX=1;exitY=0.5;exitDx=0;exitDy=0;exitPerimeter=0;entryX=0;entryY=0.5;entryDx=0;entryDy=0;entryPerimeter=0;" parent="1" target="c-NDOjgKE_WrYrarA_SW-13" edge="1">
            <mxGeometry width="240" relative="1" as="geometry">
              <mxPoint x="1200" y="-1020" as="sourcePoint" />
              <mxPoint x="1500" y="-1090" as="targetPoint" />
              <mxPoint as="offset" />
            </mxGeometry>
          </mxCell>
        </object>
        <object placeholders="1" c4Name="Presence Service" c4Type="Container" c4Technology="Spring" c4Description="" label="&lt;font style=&quot;font-size: 16px&quot;&gt;&lt;b&gt;%c4Name%&lt;/b&gt;&lt;/font&gt;&lt;div&gt;[%c4Type%: %c4Technology%]&lt;/div&gt;&lt;br&gt;&lt;div&gt;&lt;font style=&quot;font-size: 11px&quot;&gt;&lt;font color=&quot;#E6E6E6&quot;&gt;%c4Description%&lt;/font&gt;&lt;/div&gt;" id="3ZJdyBFGBV4hBSJn54f8-15">
          <mxCell style="rounded=1;whiteSpace=wrap;html=1;fontSize=11;labelBackgroundColor=none;fillColor=#23A2D9;fontColor=#ffffff;align=center;arcSize=10;strokeColor=#0E7DAD;metaEdit=1;resizable=0;points=[[0.25,0,0],[0.5,0,0],[0.75,0,0],[1,0.25,0],[1,0.5,0],[1,0.75,0],[0.75,1,0],[0.5,1,0],[0.25,1,0],[0,0.75,0],[0,0.5,0],[0,0.25,0]];" parent="1" vertex="1">
            <mxGeometry x="960" y="-1080" width="240" height="120" as="geometry" />
          </mxCell>
        </object>
        <object placeholders="1" c4Name="NoSQL database" c4Type="Container" c4Technology="MongoDB" c4Description="" label="&lt;font style=&quot;font-size: 16px&quot;&gt;&lt;b&gt;%c4Name%&lt;/b&gt;&lt;/font&gt;&lt;div&gt;[%c4Type%:&amp;nbsp;%c4Technology%]&lt;/div&gt;&lt;br&gt;&lt;div&gt;&lt;font style=&quot;font-size: 11px&quot;&gt;&lt;font color=&quot;#E6E6E6&quot;&gt;%c4Description%&lt;/font&gt;&lt;/div&gt;" id="3ZJdyBFGBV4hBSJn54f8-16">
          <mxCell style="shape=cylinder3;size=15;whiteSpace=wrap;html=1;boundedLbl=1;rounded=0;labelBackgroundColor=none;fillColor=#23A2D9;fontSize=12;fontColor=#ffffff;align=center;strokeColor=#0E7DAD;metaEdit=1;points=[[0.5,0,0],[1,0.25,0],[1,0.5,0],[1,0.75,0],[0.5,1,0],[0,0.75,0],[0,0.5,0],[0,0.25,0]];resizable=0;" parent="1" vertex="1">
            <mxGeometry x="1440" y="-920" width="240" height="120" as="geometry" />
          </mxCell>
        </object>
        <object placeholders="1" c4Name="Broker" c4Type="Container" c4Technology="Apache Kafka" c4Description="" label="&lt;font style=&quot;font-size: 16px&quot;&gt;&lt;b&gt;%c4Name%&lt;/b&gt;&lt;/font&gt;&lt;div&gt;[%c4Type%:&amp;nbsp;%c4Technology%]&lt;/div&gt;&lt;br&gt;&lt;div&gt;&lt;font style=&quot;font-size: 11px&quot;&gt;&lt;font color=&quot;#E6E6E6&quot;&gt;%c4Description%&lt;/font&gt;&lt;/div&gt;" id="3ZJdyBFGBV4hBSJn54f8-17">
          <mxCell style="shape=cylinder3;size=15;direction=south;whiteSpace=wrap;html=1;boundedLbl=1;rounded=0;labelBackgroundColor=none;fillColor=#23A2D9;fontSize=12;fontColor=#ffffff;align=center;strokeColor=#0E7DAD;metaEdit=1;points=[[0.5,0,0],[1,0.25,0],[1,0.5,0],[1,0.75,0],[0.5,1,0],[0,0.75,0],[0,0.5,0],[0,0.25,0]];resizable=0;" parent="1" vertex="1">
            <mxGeometry x="1440" y="-760" width="240" height="120" as="geometry" />
          </mxCell>
        </object>
        <mxCell id="3ZJdyBFGBV4hBSJn54f8-20" style="edgeStyle=orthogonalEdgeStyle;rounded=0;orthogonalLoop=1;jettySize=auto;html=1;exitX=1;exitY=0.25;exitDx=0;exitDy=0;exitPerimeter=0;entryX=0;entryY=0.5;entryDx=0;entryDy=0;entryPerimeter=0;" parent="1" source="3ZJdyBFGBV4hBSJn54f8-15" target="3ZJdyBFGBV4hBSJn54f8-16" edge="1">
          <mxGeometry relative="1" as="geometry">
            <mxPoint x="2150" y="-1020" as="sourcePoint" />
            <mxPoint x="1430" y="-860" as="targetPoint" />
            <Array as="points">
              <mxPoint x="1250" y="-1050" />
              <mxPoint x="1250" y="-860" />
            </Array>
          </mxGeometry>
        </mxCell>
        <mxCell id="3ZJdyBFGBV4hBSJn54f8-21" value="read/write" style="edgeLabel;html=1;align=center;verticalAlign=middle;resizable=0;points=[];" parent="3ZJdyBFGBV4hBSJn54f8-20" vertex="1" connectable="0">
          <mxGeometry x="-0.0309" relative="1" as="geometry">
            <mxPoint as="offset" />
          </mxGeometry>
        </mxCell>
        <mxCell id="3ZJdyBFGBV4hBSJn54f8-22" style="edgeStyle=orthogonalEdgeStyle;rounded=0;orthogonalLoop=1;jettySize=auto;html=1;exitX=1;exitY=0.75;exitDx=0;exitDy=0;exitPerimeter=0;entryX=0.607;entryY=0.989;entryDx=0;entryDy=0;entryPerimeter=0;" parent="1" source="3ZJdyBFGBV4hBSJn54f8-15" target="3ZJdyBFGBV4hBSJn54f8-17" edge="1">
          <mxGeometry relative="1" as="geometry">
            <mxPoint x="1060" y="-720" as="sourcePoint" />
            <mxPoint x="1321" y="-640" as="targetPoint" />
            <Array as="points">
              <mxPoint x="1240" y="-990" />
              <mxPoint x="1240" y="-687" />
            </Array>
          </mxGeometry>
        </mxCell>
        <mxCell id="3ZJdyBFGBV4hBSJn54f8-23" value="Sending/Receiving Messages" style="edgeLabel;html=1;align=center;verticalAlign=middle;resizable=0;points=[];" parent="3ZJdyBFGBV4hBSJn54f8-22" vertex="1" connectable="0">
          <mxGeometry x="0.1825" y="-3" relative="1" as="geometry">
            <mxPoint as="offset" />
          </mxGeometry>
        </mxCell>
      </root>
    </mxGraphModel>
  </diagram>
</mxfile>
